<?xml version="1.0" encoding="UTF-8" standalone="no"?>
<!-- Created with Inkscape (http://www.inkscape.org/) -->

<svg
   xmlns:dc="http://purl.org/dc/elements/1.1/"
   xmlns:cc="http://creativecommons.org/ns#"
   xmlns:rdf="http://www.w3.org/1999/02/22-rdf-syntax-ns#"
   xmlns:svg="http://www.w3.org/2000/svg"
   xmlns="http://www.w3.org/2000/svg"
   xmlns:sodipodi="http://sodipodi.sourceforge.net/DTD/sodipodi-0.dtd"
   xmlns:inkscape="http://www.inkscape.org/namespaces/inkscape"
   id="svg2403"
   xml:space="preserve"
   height="46.12"
   width="47.143"
   version="1.0"
   inkscape:version="0.48.4 r9939"
   sodipodi:docname="icon.svg"><metadata
     id="metadata3602"><rdf:RDF><cc:Work
         rdf:about=""><dc:format>image/svg+xml</dc:format><dc:type
           rdf:resource="http://purl.org/dc/dcmitype/StillImage" /></cc:Work></rdf:RDF></metadata><sodipodi:namedview
     pagecolor="#ffffff"
     bordercolor="#666666"
     borderopacity="1"
     objecttolerance="10"
     gridtolerance="10"
     guidetolerance="10"
     inkscape:pageopacity="0"
     inkscape:pageshadow="2"
     inkscape:window-width="1437"
     inkscape:window-height="867"
     id="namedview3600"
     showgrid="false"
     inkscape:zoom="15.11275"
     inkscape:cx="35.403065"
     inkscape:cy="23.164264"
     inkscape:window-x="1920"
     inkscape:window-y="16"
     inkscape:window-maximized="0"
     inkscape:current-layer="svg2403" /><defs
     id="defs2406"><radialGradient
       id="radialGradient4343"
       gradientUnits="userSpaceOnUse"
       cy="32.935"
       cx="6.5584"
       gradientTransform="matrix(1 0 0 .74931 17.013 3.7785)"
       r="23.571"><stop
         id="stop5759"
         offset="0" /><stop
         id="stop5761"
         stop-opacity="0"
         offset="1" /></radialGradient><linearGradient
       id="linearGradient6706"
       gradientUnits="userSpaceOnUse"
       gradientTransform="matrix(-14.937 42.088 -42.088 -14.937 30.909 1.2585)"><stop
         id="stop2428"
         stop-color="#d6ef87"
         offset="0" /><stop
         id="stop2430"
         stop-color="#85b885"
         offset="1" /></linearGradient><radialGradient
       id="radialGradient6714"
       gradientUnits="userSpaceOnUse"
       cy="0"
       cx="0"
       gradientTransform="matrix(5.0283 -5.1314 -3.4992 -3.4289 34.023 16.799)"
       r="1"><stop
         id="stop2476"
         stop-color="#9dc117"
         offset="0" /><stop
         id="stop2478"
         stop-color="#699e17"
         offset="1" /></radialGradient><radialGradient
       id="radialGradient6722"
       gradientUnits="userSpaceOnUse"
       cy="0"
       cx="0"
       gradientTransform="matrix(3.253 -3.2352 3.2352 3.253 30.988 12.513)"
       r="1"><stop
         id="stop2524"
         stop-color="#9dc117"
         offset="0" /><stop
         id="stop2526"
         stop-color="#699e17"
         offset="1" /></radialGradient><linearGradient
       id="linearGradient6749"
       gradientUnits="userSpaceOnUse"
       gradientTransform="matrix(-30.378 32.736 -32.736 -30.378 37.799 2.3658)"><stop
         id="stop2708"
         stop-color="#d6ef87"
         offset="0" /><stop
         id="stop2710"
         stop-color="#85b885"
         offset="1" /></linearGradient><radialGradient
       id="radialGradient6757"
       gradientUnits="userSpaceOnUse"
       cy="0"
       cx="0"
       gradientTransform="matrix(6.6489 -2.7216 -1.8562 -4.5338 34.502 17.871)"
       r="1"><stop
         id="stop2756"
         stop-color="#9dc117"
         offset="0" /><stop
         id="stop2758"
         stop-color="#699e17"
         offset="1" /></radialGradient><radialGradient
       id="radialGradient6765"
       gradientUnits="userSpaceOnUse"
       cy="0"
       cx="0"
       gradientTransform="matrix(4.2676 -1.6828 1.6828 4.2676 33.414 12.734)"
       r="1"><stop
         id="stop2804"
         stop-color="#9dc117"
         offset="0" /><stop
         id="stop2806"
         stop-color="#699e17"
         offset="1" /></radialGradient><linearGradient
       id="linearGradient6792"
       gradientUnits="userSpaceOnUse"
       gradientTransform="matrix(-36.551 25.662 -25.662 -36.551 39.624 1.5594)"><stop
         id="stop2988"
         stop-color="#d6ef87"
         offset="0" /><stop
         id="stop2990"
         stop-color="#85b885"
         offset="1" /></linearGradient><radialGradient
       id="radialGradient6800"
       gradientUnits="userSpaceOnUse"
       cy="0"
       cx="0"
       gradientTransform="matrix(7.071 -1.2715 -.86733 -4.8216 33.161 16.032)"
       r="1"><stop
         id="stop3036"
         stop-color="#9dc117"
         offset="0" /><stop
         id="stop3038"
         stop-color="#699e17"
         offset="1" /></radialGradient><radialGradient
       id="radialGradient6808"
       gradientUnits="userSpaceOnUse"
       cy="0"
       cx="0"
       gradientTransform="matrix(4.5257 -.75352 .75352 4.5257 33.169 10.781)"
       r="1"><stop
         id="stop3084"
         stop-color="#9dc117"
         offset="0" /><stop
         id="stop3086"
         stop-color="#699e17"
         offset="1" /></radialGradient><radialGradient
       id="radialGradient6835"
       gradientUnits="userSpaceOnUse"
       cy="0"
       cx="0"
       gradientTransform="matrix(6.1498 -12.798 14.569 5.4021 20.249 33.671)"
       r="1"><stop
         id="stop3276"
         stop-color="#99603f"
         offset="0" /><stop
         id="stop3278"
         stop-color="#ecebc3"
         offset="1" /></radialGradient><radialGradient
       id="radialGradient6840"
       gradientUnits="userSpaceOnUse"
       cy="0"
       cx="0"
       gradientTransform="matrix(1.3132 -2.7327 -2.1214 -.78661 26.527 36.31)"
       r="1"><stop
         id="stop3308"
         stop-color="#e1ebc2"
         offset="0" /><stop
         id="stop3310"
         stop-color="#b88c57"
         offset="1" /></radialGradient><radialGradient
       id="radialGradient6848"
       gradientUnits="userSpaceOnUse"
       cy="0"
       cx="0"
       gradientTransform="matrix(.69887 -1.4543 -1.6556 -.61390 23.844 35.314)"
       r="1"><stop
         id="stop3356"
         stop-color="#ffebc2"
         offset="0" /><stop
         id="stop3358"
         stop-color="#b88c57"
         offset="1" /></radialGradient><radialGradient
       id="radialGradient6875"
       gradientUnits="userSpaceOnUse"
       cy="0"
       cx="0"
       gradientTransform="matrix(13.369 7.3204 -8.3324 11.746 29.781 27.017)"
       r="1"><stop
         id="stop3528"
         stop-color="#c8c8c8"
         offset="0" /><stop
         id="stop3530"
         stop-color="#f0f0e6"
         offset="1" /></radialGradient><radialGradient
       id="radialGradient6880"
       gradientUnits="userSpaceOnUse"
       cy="0"
       cx="0"
       gradientTransform="matrix(2.8542 1.5628 1.213 -1.71 25.842 32.03)"
       r="1"><stop
         id="stop3560"
         stop-color="#fff"
         offset="0" /><stop
         id="stop3562"
         stop-color="#c8c8c8"
         offset="1" /></radialGradient><radialGradient
       id="radialGradient6888"
       gradientUnits="userSpaceOnUse"
       cy="0"
       cx="0"
       gradientTransform="matrix(1.5196 .83204 .94706 -1.335 27.375 29.867)"
       r="1"><stop
         id="stop3608"
         stop-color="#fff"
         offset="0" /><stop
         id="stop3610"
         stop-color="#c8c8c8"
         offset="1" /></radialGradient><radialGradient
       id="radialGradient6915"
       gradientUnits="userSpaceOnUse"
       cy="0"
       cx="0"
       gradientTransform="matrix(13.369 7.3202 -8.332 11.745 36.447 30.35)"
       r="1"><stop
         id="stop3780"
         stop-color="#c8c8c8"
         offset="0" /><stop
         id="stop3782"
         stop-color="#f0f0e6"
         offset="1" /></radialGradient><radialGradient
       id="radialGradient6920"
       gradientUnits="userSpaceOnUse"
       cy="0"
       cx="0"
       gradientTransform="matrix(2.8554 1.5635 1.2136 -1.7107 32.508 35.362)"
       r="1"><stop
         id="stop3812"
         stop-color="#fff"
         offset="0" /><stop
         id="stop3814"
         stop-color="#c8c8c8"
         offset="1" /></radialGradient><radialGradient
       id="radialGradient6928"
       gradientUnits="userSpaceOnUse"
       cy="0"
       cx="0"
       gradientTransform="matrix(1.5196 .83204 .94706 -1.335 34.043 33.201)"
       r="1"><stop
         id="stop3860"
         stop-color="#fff"
         offset="0" /><stop
         id="stop3862"
         stop-color="#c8c8c8"
         offset="1" /></radialGradient><radialGradient
       id="radialGradient6955"
       gradientUnits="userSpaceOnUse"
       cy="0"
       cx="0"
       gradientTransform="matrix(15.816 0 0 13.896 36.805 24.904)"
       r="1"><stop
         id="stop4032"
         stop-color="#99603f"
         offset="0" /><stop
         id="stop4034"
         stop-color="#ecebc3"
         offset="1" /></radialGradient><radialGradient
       id="radialGradient6960"
       gradientUnits="userSpaceOnUse"
       cy="0"
       cx="0"
       gradientTransform="matrix(3.377 0 0 -2.0234 36.479 31.011)"
       r="1"><stop
         id="stop4064"
         stop-color="#e1ebc2"
         offset="0" /><stop
         id="stop4066"
         stop-color="#b88c57"
         offset="1" /></radialGradient><radialGradient
       id="radialGradient6968"
       gradientUnits="userSpaceOnUse"
       cy="0"
       cx="0"
       gradientTransform="matrix(1.7967 0 0 -1.5786 36.482 28.453)"
       r="1"><stop
         id="stop4112"
         stop-color="#ffebc2"
         offset="0" /><stop
         id="stop4114"
         stop-color="#b88c57"
         offset="1" /></radialGradient><linearGradient
       id="linearGradient7258"
       gradientUnits="userSpaceOnUse"
       gradientTransform="matrix(.070305 -.75588 .75588 .070305 40.29 15.325)"><stop
         id="stop2604"
         offset="0" /><stop
         id="stop2606"
         offset="1" /></linearGradient><linearGradient
       id="linearGradient7272"
       gradientUnits="userSpaceOnUse"
       gradientTransform="matrix(.97420 -.42602 -.42602 -.97420 33.086 22.617)"><stop
         id="stop2572"
         offset="0" /><stop
         id="stop2574"
         offset="1" /></linearGradient><linearGradient
       id="linearGradient7286"
       gradientUnits="userSpaceOnUse"
       gradientTransform="matrix(1.0616 -.0055695 -.0055695 -1.0616 31.341 22.841)"><stop
         id="stop2852"
         offset="0" /><stop
         id="stop2854"
         offset="1" /></linearGradient><linearGradient
       id="linearGradient7300"
       gradientUnits="userSpaceOnUse"
       gradientTransform="matrix(.36367 -.66620 .66620 .36367 40.846 18.997)"><stop
         id="stop2884"
         offset="0" /><stop
         id="stop2886"
         offset="1" /></linearGradient><linearGradient
       id="linearGradient7314"
       gradientUnits="userSpaceOnUse"
       gradientTransform="matrix(1.0404 .21673 .21673 -1.0404 29.028 20.231)"><stop
         id="stop3132"
         offset="0" /><stop
         id="stop3134"
         offset="1" /></linearGradient><linearGradient
       id="linearGradient7328"
       gradientUnits="userSpaceOnUse"
       gradientTransform="matrix(.4949 -.57545 .57545 .4949 39.126 18.459)"><stop
         id="stop3164"
         offset="0" /><stop
         id="stop3166"
         offset="1" /></linearGradient><linearGradient
       id="linearGradient7342"
       gradientUnits="userSpaceOnUse"
       gradientTransform="matrix(.36268 -.36463 -.36463 -.36268 27.143 38.72)"><stop
         id="stop3404"
         offset="0" /><stop
         id="stop3406"
         offset="1" /></linearGradient><linearGradient
       id="linearGradient7356"
       gradientUnits="userSpaceOnUse"
       gradientTransform="matrix(-.094204 -.32385 .32385 -.094204 29.015 34.797)"><stop
         id="stop3436"
         offset="0" /><stop
         id="stop3438"
         offset="1" /></linearGradient><linearGradient
       id="linearGradient7370"
       gradientUnits="userSpaceOnUse"
       gradientTransform="matrix(.25104 .3442 .3442 -.25104 23.109 32.14)"><stop
         id="stop3656"
         offset="0" /><stop
         id="stop3658"
         offset="1" /></linearGradient><linearGradient
       id="linearGradient7384"
       gradientUnits="userSpaceOnUse"
       gradientTransform="matrix(.34365 -.043259 .043259 .34365 27.153 34.42)"><stop
         id="stop3688"
         offset="0" /><stop
         id="stop3690"
         offset="1" /></linearGradient><linearGradient
       id="linearGradient7398"
       gradientUnits="userSpaceOnUse"
       gradientTransform="matrix(.25104 .3442 .3442 -.25104 29.776 35.474)"><stop
         id="stop3908"
         offset="0" /><stop
         id="stop3910"
         offset="1" /></linearGradient><linearGradient
       id="linearGradient7412"
       gradientUnits="userSpaceOnUse"
       gradientTransform="matrix(.34365 -.043259 .043259 .34365 33.82 37.754)"><stop
         id="stop3940"
         offset="0" /><stop
         id="stop3942"
         offset="1" /></linearGradient><linearGradient
       id="linearGradient7424"
       gradientUnits="userSpaceOnUse"
       gradientTransform="matrix(.43333 .17473 .17473 -.43333 34.22 32.393)"><stop
         id="stop4160"
         offset="0" /><stop
         id="stop4162"
         offset="1" /></linearGradient><linearGradient
       id="linearGradient7436"
       gradientUnits="userSpaceOnUse"
       gradientTransform="matrix(.23863 -.19398 .19398 .23863 39.054 32.433)"><stop
         id="stop4192"
         offset="0" /><stop
         id="stop4194"
         offset="1" /></linearGradient></defs><path
     id="path4985"
     d="m47.143 28.457a23.571 17.662 0 0 1 -47.143 0 23.571 17.662 0 1 1 47.143 0z"
     fill="url(#radialGradient4343)" /><path
     id="path2432"
     fill="url(#linearGradient6706)"
     d="m2.4877 26.927 14.584 16.686s19.661-14.659 28.268-28.602l-13.378-14.386s-13.736 17.482-29.474 26.302" /><path
     id="path2444"
     d="m31.963 0.625s-13.736 17.481-29.474 26.302l14.582 16.686s19.661-14.66 28.268-28.604l-13.376-14.384z"
     stroke="#405135"
     stroke-width="1.25"
     fill="none" /><path
     id="path2460"
     opacity=".60001"
     d="m2.4875 26.928 14.584 16.686s3.5838-2.6725 8.3538-6.815c-4.9612-7.18-10.392-13.009-13.576-16.196-2.9675 2.3225-6.1212 4.5075-9.3612 6.325"
     fill="#fff" /><path
     id="path2480"
     fill="url(#radialGradient6714)"
     d="m35.156 12.142-4.6488 4.75c-0.88875 4.11 0.995 6.5788 2.8512 7.25 1.8888 0.68625 3.1112-0.09625 4.29-1.3012l3.9325-4.0125c1.1112-1.1362 1.7975-2.6688 1.0162-4.245-0.6125-1.2338-2.39-2.655-5.3562-2.655-0.64 0-1.335 0.06625-2.085 0.21375" /><path
     id="path2492"
     stroke-linejoin="round"
     d="m37.649 22.84 3.9325-4.0125c1.1112-1.1362 1.7975-2.67 1.0162-4.245-0.745-1.5-3.21-3.2788-7.4412-2.4412l-4.6488 4.75c-0.88875 4.11 0.99625 6.5788 2.8512 7.25 1.89 0.68625 3.1112-0.09625 4.29-1.3012z"
     stroke="#404604"
     stroke-linecap="round"
     stroke-width=".42875"
     fill="none" /><path
     id="path2508"
     opacity=".21520"
     stroke-linejoin="round"
     d="m37.285 22.406 3.8238-3.9025c0.98125-1.0012 1.5788-2.345 0.8925-3.73-0.65625-1.3138-2.9125-2.7862-6.625-2.0488l-4.27 4.3612c-0.78125 3.61 0.78125 5.8738 2.4112 6.4638 1.6625 0.60125 2.7325-0.08625 3.7675-1.1438z"
     stroke="#fff"
     stroke-linecap="round"
     stroke-width=".42875"
     fill="none" /><path
     id="path2528"
     fill="url(#radialGradient6722)"
     d="m27.71 9.3054c-1.7725 1.8112-1.7412 4.715 0.0675 6.485 0.0025 0.0012 0.005 0.0063 0.005 0.0063 1.8112 1.7688 4.715 1.74 6.485-0.07375 1.7688-1.805 1.7438-4.7113-0.0675-6.4826 0 0-0.0012-0.0025-0.0037-0.0025-0.89125-0.875-2.0488-1.31-3.2062-1.31-1.19 0-2.3812 0.46-3.28 1.3775" /><path
     id="path2540"
     stroke-linejoin="round"
     d="m34.201 9.2395c1.8088 1.7725 1.8362 4.6775 0.06625 6.4838-1.77 1.8138-4.6738 1.8425-6.485 0.0725 0 0-0.0025-0.0038-0.005-0.005-1.8088-1.77-1.84-4.675-0.0675-6.485 1.775-1.81 4.68-1.8412 6.4862-0.06875 0.0025 0 0.005 0.0025 0.005 0.0025z"
     stroke="#404604"
     stroke-linecap="round"
     stroke-width=".42875"
     fill="none" /><path
     id="path2556"
     opacity=".12659"
     stroke-linejoin="round"
     d="m33.808 9.6435c1.5875 1.5538 1.6138 4.1 0.05875 5.6875-1.5525 1.585-4.0988 1.615-5.6888 0.0625 0-0.005-0.0025-0.005-0.005-0.005-1.5888-1.5538-1.6112-4.1025-0.06125-5.6888 1.555-1.5888 4.1025-1.615 5.6938-0.0625-0.0025 0.00375 0 0.00625 0.0025 0.00625z"
     stroke="#fff"
     stroke-linecap="round"
     stroke-width=".42875"
     fill="none" /><path
     id="path2588"
     opacity=".22784"
     fill="url(#linearGradient7272)"
     d="m35.659 24.087c-0.66875 0.27-1.3725-0.0063-1.3725-0.0063-1.23-1.825-1.2862-4.0175-1.2862-4.0175s1.58 3.2425 2.6588 4.0238" /><path
     id="path2620"
     opacity=".22784"
     fill="url(#linearGradient7258)"
     d="m42.339 16.619c0.23875-0.68-0.08375-1.4238-0.08375-1.4238-1.8862-1.135-4.0675-1.0325-4.0675-1.0325s3.3162 1.4188 4.1512 2.4562" /><path
     id="path2624"
     d="m19.272 39.421-0.66 0.5775-1.8875-2.1625-0.14875 1.0675-0.61625-0.70375 0.14625-1.0688 0.66125-0.57625 2.505 2.8662z"
     fill="#405135" /><path
     id="path2628"
     d="m20.5 36.821-0.98875-1.1325c-0.08375-0.09625-0.17375-0.14625-0.265-0.15625-0.0925-0.0087-0.17875 0.01875-0.2575 0.0875-0.075 0.065-0.11625 0.145-0.12375 0.2375-0.0038 0.09375 0.03625 0.18875 0.1225 0.28875l0.99 1.1312c0.085 0.09625 0.17375 0.14875 0.26625 0.15375 0.0925 0.0087 0.17625-0.02125 0.2525-0.08875 0.07625-0.06625 0.12-0.145 0.12375-0.235 0.0088-0.0925-0.03375-0.18625-0.12-0.28625m0.656-0.581c0.24625 0.28125 0.34875 0.5875 0.30375 0.915-0.04125 0.3-0.18875 0.5625-0.445 0.785-0.25375 0.22125-0.5325 0.335-0.83625 0.33375-0.33-0.0012-0.62-0.14-0.86625-0.42125l-0.98625-1.1275c-0.245-0.28125-0.3475-0.58625-0.3-0.91625 0.04125-0.3 0.18625-0.56125 0.4425-0.78375 0.255-0.22375 0.53375-0.3325 0.835-0.33375 0.3325-0.0012 0.62125 0.14 0.86625 0.42125l0.98625 1.1275z"
     fill="#405135" /><path
     id="path2632"
     d="m22.738 34.866-0.98875-1.1325c-0.08375-0.09625-0.17375-0.14875-0.265-0.15625-0.09375-0.01125-0.18 0.02-0.25875 0.0875-0.07375 0.06625-0.11375 0.14375-0.12 0.2375-0.0075 0.095 0.03375 0.19125 0.12125 0.28875l0.98875 1.1312c0.08375 0.09625 0.17375 0.14875 0.2675 0.155 0.0925 0.005 0.17625-0.02375 0.25-0.08875 0.07875-0.06875 0.12125-0.14875 0.1275-0.23875 0.005-0.08875-0.035-0.185-0.1225-0.28375m0.6575-0.5825c0.245 0.28125 0.3475 0.58625 0.3025 0.91625-0.0425 0.3-0.19 0.5625-0.44375 0.78375-0.255 0.22375-0.5325 0.33375-0.83875 0.335-0.32875 0-0.61875-0.1425-0.86375-0.42375l-0.98625-1.1275c-0.245-0.28-0.34625-0.585-0.3025-0.91375 0.04125-0.3 0.18875-0.56125 0.44375-0.785 0.255-0.22125 0.53375-0.33375 0.8375-0.33375 0.33125-0.0012 0.61875 0.14125 0.865 0.42125l0.98625 1.1275z"
     fill="#405135" /><path
     id="path2636"
     d="m24.976 32.909-0.98875-1.1325c-0.085-0.09625-0.17375-0.14875-0.26625-0.15625-0.09375-0.0087-0.17875 0.01875-0.25625 0.0875-0.075 0.06625-0.11625 0.14375-0.12375 0.2375-0.0062 0.09375 0.035 0.19 0.1225 0.28875l0.99125 1.1312c0.0825 0.09625 0.1725 0.14875 0.265 0.15375 0.0925 0.0062 0.1775-0.0225 0.25375-0.0875 0.0775-0.06875 0.12-0.14625 0.125-0.23875 0.0075-0.08875-0.03625-0.18625-0.1225-0.28375m0.6575-0.5825c0.245 0.28375 0.345 0.58625 0.30125 0.91625-0.0425 0.3-0.18875 0.5625-0.4425 0.785s-0.53375 0.335-0.83625 0.33375c-0.33 0-0.62125-0.14-0.865-0.42375l-0.98625-1.1275c-0.24875-0.28125-0.34875-0.58625-0.30375-0.91375 0.04125-0.29875 0.18875-0.56125 0.4425-0.78375 0.255-0.22375 0.53625-0.335 0.83875-0.335 0.33 0 0.62 0.14 0.865 0.42125l0.98625 1.1275z"
     fill="#405135" /><path
     id="path2640"
     d="m27.216 30.952-0.98875-1.1325c-0.085-0.09625-0.17375-0.14875-0.26625-0.15625-0.095-0.0087-0.18 0.01875-0.25625 0.0875-0.07625 0.065-0.1175 0.14375-0.125 0.2375-0.005 0.09375 0.035 0.19 0.1225 0.2875l0.98875 1.1312c0.085 0.0975 0.17375 0.14875 0.26625 0.155 0.0925 0.005 0.17875-0.0225 0.25125-0.08875 0.08125-0.0675 0.1225-0.145 0.1275-0.2375 0.0075-0.09-0.0325-0.18625-0.12-0.28375m0.65375-0.5825c0.2475 0.2825 0.3475 0.5875 0.30375 0.91625-0.04 0.3-0.18875 0.5625-0.4425 0.785-0.25625 0.22125-0.535 0.335-0.8375 0.33375-0.33125-0.0013-0.6225-0.14-0.86625-0.42375l-0.98375-1.1275c-0.24875-0.28125-0.34875-0.58625-0.3025-0.9125 0.04-0.3 0.18625-0.56375 0.44125-0.785 0.25625-0.2225 0.535-0.335 0.8375-0.335 0.3325 0 0.62 0.14 0.86625 0.4225l0.98375 1.1262z"
     fill="#405135" /><path
     id="path2644"
     d="m16.206 26.226 1.1675 2.3488-0.3825 0.33625-1.1338-0.6575 0.525 1.2012-0.37625 0.335-2.2025-1.425 0.485-0.43375 1.135 0.78-0.5825-1.27 0.32875-0.29375 1.1938 0.7275-0.64125-1.2175 0.48375-0.43125z"
     fill="#405135" /><path
     id="path2648"
     d="m18.49 27.578-0.43625 0.39-1.2212-1.37 0.435-0.39 1.2225 1.37zm-1.4012-1.5712-0.43625 0.38875-0.295-0.33375 0.43625-0.38875 0.295 0.33375z"
     fill="#405135" /><path
     id="path2652"
     d="m20.174 26.082-0.54 0.48-0.76125-0.26-0.0025 0.17 0.38125 0.4275-0.43625 0.38875-1.68-1.8888 0.43625-0.38875 0.855 0.95875-0.06125-0.83875 0.52375-0.465v1.06l1.285 0.35625z"
     fill="#405135" /><path
     id="path2656"
     d="m20.772 25.546-0.435 0.3875-1.22-1.37 0.435-0.39 1.22 1.3725zm-1.4-1.5738-0.43625 0.38875-0.295-0.335 0.4375-0.38375 0.29375 0.33z"
     fill="#405135" /><path
     id="path2660"
     d="m21.262 23.832c-0.10625-0.12-0.1875-0.1925-0.24875-0.2225-0.0775-0.0375-0.1525-0.0225-0.23125 0.04625-0.075 0.06625-0.10125 0.1375-0.075 0.20875 0.025 0.07375 0.09 0.17125 0.1925 0.28875 0.1075 0.11625 0.19625 0.195 0.26625 0.2275 0.0675 0.03375 0.14 0.0175 0.2175-0.0525 0.075-0.06625 0.09875-0.1425 0.06875-0.22625-0.02-0.0625-0.0825-0.1525-0.19-0.27m0.43625-0.38875c0.0325 0.03625 0.055 0.0625 0.07 0.07875 0.11375 0.12875 0.19375 0.22875 0.23625 0.30375 0.06875 0.11875 0.10125 0.22875 0.095 0.3375-0.01 0.16125-0.085 0.3075-0.23125 0.43375-0.1325 0.12-0.2725 0.175-0.42375 0.16625l0.505 0.56375-0.43625 0.38875-1.6838-1.8912 0.42375-0.37375 0.105 0.11625c0.0038-0.08125 0.0225-0.15875 0.05125-0.22625 0.035-0.0675 0.085-0.13375 0.1575-0.2 0.1475-0.12875 0.3-0.19 0.46375-0.1775 0.14 0.0063 0.28625 0.0875 0.4425 0.24 0.045 0.045 0.12125 0.1225 0.225 0.24"
     fill="#405135" /><path
     id="path2664"
     d="m22.633 22.345c-0.025-0.025-0.04375-0.04375-0.0575-0.05375-0.01625-0.0125-0.0375-0.02375-0.0675-0.03625-0.04625-0.01875-0.09375-0.02625-0.14125-0.02-0.045 0.0062-0.09375 0.03125-0.14625 0.07625-0.04875 0.04375-0.08 0.09125-0.0925 0.1375-0.015 0.04875-0.015 0.09625 0.0025 0.1425 0.0125 0.04625 0.04 0.09 0.07625 0.1325l0.42625-0.37875zm0.68625-0.0925-0.855 0.76125c0.05375 0.0625 0.12375 0.09375 0.20875 0.1 0.085-0.0013 0.1625-0.03 0.24125-0.1 0.075-0.06875 0.12375-0.1275 0.14875-0.17875 0.0225-0.0525 0.035-0.12125 0.04125-0.205l0.49125 0.02875c-0.0087 0.1475-0.0375 0.275-0.08875 0.385-0.05 0.11-0.13875 0.22125-0.2675 0.335-0.195 0.1725-0.38625 0.26625-0.57625 0.275-0.25125 0.0125-0.5025-0.12-0.75-0.4-0.2025-0.23-0.3025-0.46125-0.30125-0.69375 0.0038-0.235 0.09875-0.4375 0.29-0.60625 0.2-0.17875 0.4175-0.25375 0.6525-0.22625 0.22125 0.025 0.42 0.13625 0.5925 0.33125l0.1725 0.19375z"
     fill="#405135" /><path
     id="path2668"
     d="m24.205 21.213c-0.10375-0.11875-0.18875-0.19375-0.24875-0.22375-0.07875-0.0375-0.15375-0.0225-0.2325 0.045-0.075 0.06875-0.10125 0.13875-0.075 0.21125 0.025 0.0725 0.09 0.16875 0.19375 0.28625 0.10625 0.12 0.19625 0.195 0.265 0.22875 0.06875 0.035 0.14125 0.015 0.2175-0.0525 0.0775-0.06625 0.1-0.1425 0.07125-0.22375-0.0225-0.06375-0.085-0.155-0.19125-0.27125m1.0675 0.325-0.4175 0.37625-0.10375-0.1175c-0.0062 0.0825-0.02375 0.16-0.0575 0.22625-0.03 0.06875-0.08125 0.13375-0.15375 0.19875-0.145 0.12875-0.30125 0.18875-0.46375 0.17875-0.10375-0.0075-0.21-0.05125-0.32-0.13375-0.0775-0.05875-0.17-0.1475-0.27375-0.2675-0.0325-0.035-0.0575-0.06125-0.075-0.08125-0.1375-0.155-0.22625-0.265-0.27375-0.33375-0.09125-0.13625-0.13125-0.26625-0.125-0.38375 0.0075-0.16375 0.085-0.3075 0.2275-0.435 0.13125-0.1175 0.27375-0.17375 0.425-0.1625l-0.50375-0.565 0.43625-0.39 1.6788 1.89z"
     fill="#405135" /><path
     id="path2672"
     d="m26.037 20.857-0.4325 0.38875-1.22-1.3725 0.43375-0.38875 1.2188 1.3725zm-1.3975-1.5738-0.43625 0.3875-0.295-0.3325 0.43625-0.38625 0.295 0.33125z"
     fill="#405135" /><path
     id="path2676"
     d="m26.574 19.423-0.03375-0.03875-0.22 0.1975c-0.04125 0.0375-0.06625 0.07875-0.07375 0.12-0.005 0.04375 0.0075 0.08375 0.035 0.115 0.02875 0.035 0.07 0.05125 0.11375 0.0525 0.0475 0.0012 0.09375-0.0175 0.1375-0.06 0.04625-0.0425 0.0775-0.07625 0.095-0.1 0.0175-0.02625 0.025-0.06125 0.03125-0.11 0.005-0.0475-0.02625-0.1075-0.085-0.17625m0.91125 0.14875-0.425 0.3775-0.105-0.1175c-0.005 0.08625-0.02 0.16125-0.04875 0.2225-0.0275 0.0625-0.07875 0.12375-0.15125 0.19125-0.145 0.12625-0.29875 0.18625-0.455 0.17875-0.075-0.0063-0.14875-0.0275-0.22375-0.06625-0.07375-0.03875-0.14-0.0925-0.20125-0.15875-0.1025-0.11875-0.14875-0.245-0.14125-0.38875 0.0125-0.16 0.0975-0.31375 0.25875-0.4575l0.28875-0.2575-0.035-0.0375c-0.05375-0.06375-0.1125-0.09375-0.1675-0.09125-0.05625 0.0012-0.125 0.03625-0.20125 0.105-0.05625 0.05-0.095 0.0925-0.11125 0.1325-0.0175 0.04125-0.03 0.09625-0.0325 0.1675l-0.5125-0.02875c0.0075-0.13625 0.03875-0.25125 0.09-0.34875s0.14-0.2 0.25875-0.3075c0.42-0.37375 0.78375-0.385 1.0888-0.04125l0.82625 0.92625z"
     fill="#405135" /><path
     id="path2692"
     opacity="0.3"
     d="m32.052 3.4705c-1.1262 1.3412-2.9612 3.4625-5.3025 5.9438-5.0975 5.405-12.842 12.789-21.356 17.989l11.932 13.65c2.9312-2.2925 10.652-8.5275 17.482-15.769 3.3788-3.5825 6.1238-6.9625 8.17-10.06l-10.926-11.754zm-0.055-1.895 12.559 13.51c-2.1362 3.3838-5.1075 7.1012-8.8375 11.058-7.705 8.1688-16.472 15.025-18.559 16.62l-13.695-15.669c8.8638-5.125 17.034-12.874 22.375-18.539 3.0612-3.2425 5.2538-5.8688 6.1575-6.98"
     fill="#fff" /><path
     id="path2712"
     fill="url(#linearGradient6749)"
     d="m1.5352 14.687 6.7888 21.094s23.861-5.6738 37.284-15.074l-6.5925-18.506s-19.534 10.618-37.48 12.486" /><path
     id="path2724"
     d="m39.016 2.2009s-19.535 10.618-37.48 12.486l6.7875 21.094s23.861-5.675 37.284-15.074l-6.5912-18.506z"
     stroke="#405135"
     stroke-width="1.25"
     fill="none" /><path
     id="path2740"
     opacity=".60001"
     d="m1.5354 14.686 6.7888 21.095s4.3475-1.0325 10.37-2.95c-1.7162-8.555-4.3962-16.059-6.0588-20.246-3.6425 0.9575-7.405 1.7162-11.1 2.1012"
     fill="#fff" /><path
     id="path2760"
     fill="url(#radialGradient6757)"
     d="m31.24 16.563c-2.4438 3.4238-1.69 6.4362-0.25125 7.785 1.465 1.3788 2.8925 1.1438 4.455 0.505l5.1975-2.1262c1.475-0.60625 2.71-1.7425 2.6125-3.4988-0.09-1.6725-1.65-4.2812-5.8638-5.1862l-6.15 2.5212z" /><path
     id="path2772"
     stroke-linejoin="round"
     d="m35.444 24.852 5.1975-2.1262c1.475-0.60625 2.71-1.7412 2.6125-3.4988-0.09-1.6712-1.65-4.28-5.8638-5.1862l-6.15 2.5212c-2.4438 3.4238-1.69 6.4362-0.25125 7.785 1.4638 1.3788 2.8925 1.145 4.455 0.505z"
     stroke="#404604"
     stroke-linecap="round"
     stroke-width=".42875"
     fill="none" /><path
     id="path2788"
     opacity=".21520"
     stroke-linejoin="round"
     d="m35.28 24.308 5.0588-2.0662c1.2938-0.53125 2.375-1.5312 2.295-3.075-0.08375-1.465-1.5725-3.7112-5.2762-4.5038l-5.6462 2.3138c-2.1462 3.0075-1.6075 5.705-0.345 6.8912 1.2888 1.2088 2.5462 1.0025 3.9138 0.44z"
     stroke="#fff"
     stroke-linecap="round"
     stroke-width=".42875"
     fill="none" /><path
     id="path2808"
     fill="url(#radialGradient6765)"
     d="m31.678 8.4879c-2.3475 0.9625-3.47 3.6438-2.5075 5.985 0.0012-0.0013 0.0012 0.005 0.0012 0.005 0.9625 2.3438 3.6412 3.465 5.9825 2.5012 2.3412-0.95875 3.4662-3.6388 2.5038-5.9812 0 0-0.0025-0.0038 0-0.0063-0.725-1.7737-2.4388-2.8462-4.245-2.8462-0.57875 0-1.1675 0.11-1.735 0.3425" /><path
     id="path2820"
     stroke-linejoin="round"
     d="m37.658 10.998c0.9625 2.3425-0.16375 5.0225-2.505 5.98-2.3412 0.965-5.02-0.1575-5.9812-2.5 0 0 0-0.005-0.0025-0.005-0.9625-2.3425 0.16125-5.0225 2.5075-5.985 2.3412-0.95875 5.0212 0.16125 5.9812 2.5038-0.0025 0.0038 0 0.0063 0 0.0063z"
     stroke="#404604"
     stroke-linecap="round"
     stroke-width=".42875"
     fill="none" /><path
     id="path2836"
     opacity=".12659"
     stroke-linejoin="round"
     d="m37.141 11.212c0.84 2.0562-0.14125 4.4038-2.2 5.2462-2.0525 0.84375-4.4012-0.13875-5.2462-2.1938 0-0.0038 0-0.0063-0.0025-0.005-0.845-2.0575 0.14125-4.4062 2.195-5.2488 2.0575-0.84375 4.4062 0.14125 5.2488 2.195 0 0.0038 0 0.005 0.005 0.0062z"
     stroke="#fff"
     stroke-linecap="round"
     stroke-width=".42875"
     fill="none" /><path
     id="path2868"
     opacity=".22784"
     fill="url(#linearGradient7286)"
     d="m33.123 25.209c-0.72125-0.015-1.2575-0.54875-1.2575-0.54875-0.405-2.1638 0.41-4.1988 0.41-4.1988s0.16875 3.6025 0.8475 4.7475" /><path
     id="path2900"
     opacity=".22784"
     fill="url(#linearGradient7300)"
     d="m42.211 20.995c0.48875-0.5275 0.48625-1.3412 0.48625-1.3412-1.285-1.7888-3.3225-2.5562-3.3225-2.5562s2.4825 2.6138 2.8362 3.8975" /><path
     id="path2904"
     d="m12.004 32.805-0.83625 0.26875-0.8775-2.7325-0.5575 0.92125-0.28875-0.89125 0.55875-0.92125 0.835-0.27 1.1662 3.625z"
     fill="#405135" /><path
     id="path2908"
     d="m14.162 30.902-0.46-1.43c-0.03875-0.1225-0.1025-0.20625-0.18375-0.24625-0.08-0.04625-0.17125-0.0575-0.26875-0.025-0.09625 0.03-0.165 0.0875-0.2075 0.17-0.04125 0.08375-0.04375 0.18875-0.0038 0.315l0.4625 1.43c0.03875 0.12125 0.09875 0.20375 0.18125 0.24375 0.08375 0.04625 0.17125 0.0525 0.26875 0.02125 0.09625-0.03125 0.1675-0.0875 0.2075-0.17 0.04375-0.08 0.0425-0.18 0.0038-0.30875m0.83125-0.2725c0.115 0.35375 0.08625 0.67625-0.08375 0.95625-0.155 0.26125-0.395 0.4425-0.72 0.5475-0.32 0.10375-0.62125 0.09625-0.8975-0.0225-0.30375-0.1325-0.515-0.375-0.62875-0.7325l-0.46-1.425c-0.115-0.35375-0.08625-0.675 0.085-0.9575 0.15625-0.26 0.395-0.4425 0.7175-0.5475 0.32375-0.1025 0.62125-0.09375 0.9 0.02625 0.305 0.13 0.51375 0.37375 0.62875 0.72875l0.45875 1.4262z"
     fill="#405135" /><path
     id="path2912"
     d="m16.989 29.994-0.45875-1.43c-0.04-0.125-0.10125-0.20625-0.18375-0.2525-0.08-0.04625-0.17-0.05125-0.27-0.02-0.095 0.03-0.1625 0.08625-0.205 0.17-0.04375 0.0825-0.045 0.18875-0.0025 0.3125l0.46 1.4325c0.03875 0.1225 0.1 0.205 0.1825 0.245 0.085 0.04375 0.17375 0.04875 0.26625 0.0175 0.09875-0.03125 0.17125-0.08875 0.21125-0.1675s0.04125-0.1825 0-0.3075m0.83375-0.27625c0.115 0.355 0.0875 0.67625-0.08375 0.96-0.15625 0.26125-0.3975 0.44125-0.71875 0.545-0.32 0.105-0.62125 0.095-0.9-0.02375-0.305-0.13125-0.5125-0.375-0.62875-0.73125l-0.45875-1.425c-0.11375-0.355-0.085-0.67625 0.08375-0.95875 0.15625-0.2575 0.395-0.44 0.72-0.545 0.32-0.10375 0.62125-0.095 0.9 0.02625 0.30375 0.12875 0.51375 0.3725 0.62875 0.72625l0.4575 1.4262z"
     fill="#405135" /><path
     id="path2916"
     d="m19.819 29.082-0.45875-1.4312c-0.04-0.1225-0.1-0.20625-0.1825-0.25125-0.08125-0.04375-0.17-0.05125-0.27-0.01875-0.095 0.03125-0.16125 0.0875-0.2075 0.17125-0.0425 0.0825-0.04375 0.18625-0.0012 0.31125l0.46 1.4325c0.04 0.12 0.10125 0.2025 0.185 0.24625 0.08125 0.04125 0.1725 0.04625 0.265 0.01875 0.09875-0.035 0.1675-0.08875 0.21-0.17125 0.04125-0.07875 0.04125-0.1825 0-0.3075m0.835-0.275c0.11375 0.35625 0.08625 0.67625-0.085 0.96125-0.15625 0.26-0.39625 0.4425-0.71625 0.545-0.32375 0.1025-0.62625 0.09625-0.9025-0.02625-0.30375-0.13125-0.5125-0.37375-0.62625-0.72875l-0.46-1.4275c-0.11375-0.355-0.085-0.675 0.08375-0.95875 0.15625-0.25625 0.395-0.44125 0.71875-0.5425 0.32125-0.105 0.6225-0.0975 0.90125 0.02375 0.3025 0.13125 0.5125 0.3725 0.6275 0.7275l0.45875 1.4262z"
     fill="#405135" /><path
     id="path2920"
     d="m22.651 28.173-0.46125-1.4325c-0.0375-0.1225-0.09875-0.20625-0.18125-0.25-0.08125-0.04625-0.17125-0.05125-0.27-0.02-0.095 0.02875-0.1625 0.08625-0.2075 0.17-0.04125 0.0825-0.045 0.1875-0.0012 0.3125l0.46 1.4312c0.03875 0.12 0.1 0.205 0.18375 0.24625 0.0825 0.04 0.17125 0.04875 0.265 0.0175 0.1-0.0325 0.1675-0.0875 0.21-0.17 0.04125-0.07875 0.04375-0.18125 0.0025-0.305m0.83375-0.2775c0.11125 0.35625 0.08375 0.67875-0.08625 0.96125-0.155 0.25875-0.395 0.4425-0.71625 0.545-0.3225 0.10375-0.62375 0.09625-0.90125-0.0225-0.30375-0.135-0.515-0.375-0.62625-0.7325l-0.46-1.4275c-0.115-0.355-0.0875-0.67375 0.08375-0.95625 0.155-0.25875 0.39625-0.44125 0.7175-0.545 0.32375-0.10375 0.6225-0.0975 0.9 0.02375 0.305 0.13125 0.51375 0.37375 0.62875 0.73l0.46 1.4238z"
     fill="#405135" /><path
     id="path2924"
     d="m14.413 19.473 0.14 2.6188-0.4825 0.16-0.78-1.0538 0.0038 1.3112-0.47625 0.1575-1.4588-2.1788 0.6175-0.20625 0.73375 1.165-0.03375-1.3988 0.42-0.13875 0.8075 1.1412-0.10625-1.3738 0.615-0.20375z"
     fill="#405135" /><path
     id="path2928"
     d="m15.973 21.62-0.55375 0.18375-0.57875-1.7412 0.55375-0.18625 0.57875 1.7438zm-0.66375-1.9975-0.55625 0.18375-0.1375-0.425 0.555-0.18375 0.13875 0.425z"
     fill="#405135" /><path
     id="path2932"
     d="m18.112 20.912-0.68375 0.2275-0.59625-0.54125-0.07125 0.155 0.18125 0.5475-0.55375 0.18125-0.7975-2.4 0.55625-0.185 0.40375 1.2212 0.27875-0.795 0.66375-0.2225-0.41875 0.97625 1.0375 0.835z"
     fill="#405135" /><path
     id="path2936"
     d="m18.874 20.658-0.55125 0.18125-0.58-1.74 0.555-0.185 0.57625 1.7438zm-0.66125-2.0012-0.55625 0.18375-0.13625-0.42125 0.55125-0.1825 0.14125 0.42z"
     fill="#405135" /><path
     id="path2940"
     d="m20.002 19.275c-0.04875-0.14875-0.095-0.25-0.14125-0.3-0.05375-0.0675-0.13-0.08375-0.23-0.05125-0.09375 0.03125-0.14625 0.08625-0.15125 0.165-0.0062 0.075 0.015 0.19 0.06375 0.33875 0.0525 0.15125 0.1025 0.25625 0.1525 0.315 0.04875 0.05625 0.1225 0.07125 0.22125 0.0375 0.09625-0.03125 0.1475-0.0925 0.1525-0.17875 0.0062-0.06625-0.015-0.175-0.0675-0.32625m0.555-0.1825c0.015 0.045 0.025 0.08 0.035 0.10125 0.0525 0.1625 0.085 0.28375 0.09625 0.37125 0.015 0.1375 0 0.25125-0.0475 0.34625-0.07375 0.14625-0.2 0.24875-0.3825 0.31-0.1725 0.05625-0.32125 0.05125-0.45625-0.0175l0.23875 0.7175-0.55375 0.18375-0.79625-2.4012 0.535-0.17625 0.05125 0.1475c0.03625-0.07375 0.08125-0.13625 0.1375-0.18625 0.0575-0.04875 0.13125-0.09 0.225-0.12125 0.18375-0.0625 0.34875-0.05625 0.495 0.02125 0.125 0.05875 0.22625 0.19 0.31 0.39375 0.025 0.05875 0.06375 0.16125 0.1125 0.31"
     fill="#405135" /><path
     id="path2944"
     d="m21.849 18.453c-0.0125-0.0325-0.0225-0.0575-0.03-0.0725-0.0087-0.015-0.02625-0.03625-0.04875-0.05875-0.03375-0.0375-0.075-0.06125-0.12-0.075-0.0425-0.0125-0.09875-0.0087-0.165 0.01375-0.06375 0.01875-0.11 0.04875-0.14 0.08875-0.0325 0.03875-0.05 0.0825-0.05375 0.13-0.005 0.05 0.0012 0.1 0.0175 0.15375l0.54-0.18zm0.6675 0.18625-1.085 0.36125c0.025 0.08 0.0775 0.13625 0.1525 0.1725 0.0775 0.035 0.1625 0.03875 0.26 0.005 0.095-0.03125 0.165-0.07125 0.20625-0.1075 0.0425-0.0375 0.08375-0.09375 0.1175-0.16875l0.44 0.22c-0.06375 0.1325-0.1425 0.23875-0.23125 0.3175-0.08875 0.0825-0.215 0.14875-0.37875 0.2025-0.24625 0.08375-0.45875 0.0925-0.63625 0.025-0.23625-0.08875-0.41625-0.30875-0.53375-0.665-0.095-0.29125-0.09625-0.5425 0-0.75625 0.095-0.21375 0.26375-0.36 0.5075-0.4425 0.2525-0.08125 0.4825-0.06625 0.68625 0.05125 0.19375 0.11125 0.33125 0.29125 0.41375 0.54l0.08125 0.245z"
     fill="#405135" /><path
     id="path2948"
     d="m23.742 18.036c-0.05-0.15-0.0975-0.2525-0.14-0.3025-0.05875-0.06625-0.13625-0.0825-0.2325-0.05125-0.09375 0.0325-0.14625 0.08625-0.15125 0.16375-0.0075 0.07625 0.015 0.19 0.06375 0.34125 0.0525 0.15 0.1025 0.255 0.15375 0.31375 0.0475 0.05625 0.12375 0.07 0.21875 0.0375 0.0975-0.03125 0.1475-0.09125 0.15625-0.1775 0.0038-0.0675-0.01875-0.175-0.06875-0.325m0.855 0.7225-0.53625 0.17625-0.04875-0.1475c-0.03875 0.075-0.08625 0.13625-0.14125 0.18875-0.05625 0.04875-0.12875 0.09-0.2225 0.11875-0.185 0.0625-0.34875 0.05625-0.495-0.0175-0.09125-0.05-0.17-0.13125-0.24125-0.25125-0.0475-0.08375-0.09625-0.20125-0.14625-0.35375-0.01625-0.045-0.0275-0.08-0.035-0.1025-0.06625-0.19875-0.10625-0.33625-0.12-0.41625-0.03-0.16125-0.01625-0.295 0.03625-0.4 0.0725-0.1475 0.20125-0.25125 0.38375-0.31125 0.1675-0.055 0.31875-0.05 0.455 0.015l-0.24-0.715 0.5525-0.18375 0.79875 2.4z"
     fill="#405135" /><path
     id="path2952"
     d="m25.569 18.436-0.55375 0.18375-0.57875-1.7425 0.55375-0.18375 0.57875 1.7425zm-0.66375-1.9988-0.55375 0.1825-0.14125-0.42125 0.555-0.18375 0.14 0.4225z"
     fill="#405135" /><path
     id="path2956"
     d="m26.626 17.328-0.015-0.04625-0.28 0.09375c-0.05375 0.0175-0.09375 0.045-0.115 0.0825-0.0225 0.03625-0.0275 0.07875-0.0125 0.11875 0.0125 0.04375 0.04125 0.07375 0.08125 0.09375 0.04375 0.02 0.095 0.0175 0.15375-0.0013 0.0575-0.02125 0.1-0.03875 0.12375-0.055 0.025-0.0175 0.04875-0.0475 0.07375-0.09 0.02125-0.04125 0.01875-0.10875-0.01-0.19625m0.77875 0.49875-0.54 0.17875-0.04875-0.14875c-0.03875 0.07875-0.085 0.14-0.13375 0.18375-0.04875 0.0475-0.1225 0.08375-0.215 0.115-0.1825 0.06-0.34625 0.05625-0.49125-0.01625-0.0625-0.0325-0.12125-0.0825-0.175-0.145-0.05375-0.0675-0.0925-0.14125-0.1225-0.2275-0.04875-0.14875-0.04125-0.28625 0.025-0.4125 0.07375-0.145 0.215-0.25125 0.4175-0.31875l0.36875-0.12125-0.0175-0.0475c-0.0275-0.08125-0.06875-0.1325-0.12-0.1525-0.05375-0.02125-0.12875-0.015-0.22625 0.01625-0.07125 0.025-0.1225 0.05-0.15375 0.08-0.0325 0.02875-0.06625 0.07625-0.09625 0.13875l-0.46125-0.2287c0.0625-0.12125 0.1375-0.215 0.2225-0.2825 0.0875-0.07125 0.2075-0.13 0.36125-0.18125 0.5325-0.17625 0.86875-0.045 1.0162 0.39375l0.39 1.1762z"
     fill="#405135" /><path
     id="path2972"
     opacity="0.3"
     d="m37.97 4.8505c-1.5662 0.78625-4.09 2.0075-7.22 3.3588-6.8238 2.9438-16.861 6.66-26.734 8.0638l5.5538 17.26c3.6112-0.95 13.2-3.6325 22.298-7.5612 4.525-1.955 8.3838-3.9712 11.485-6.0038l-5.3825-15.118zm0.7-1.7612 6.1862 17.376c-3.3012 2.2625-7.5025 4.4988-12.492 6.6538-10.31 4.4512-21.075 7.2775-23.622 7.9188l-6.3748-19.811c10.169-1.1988 20.739-5.0812 27.886-8.165 4.0962-1.7688 7.1488-3.3112 8.4162-3.9725"
     fill="#fff" /><path
     id="path2992"
     fill="url(#linearGradient6792)"
     d="m1.5877 6.0266 2.2275 22.046s24.52-0.56125 39.611-6.9462l-2.5775-19.475s-21.322 6.2988-39.261 4.375" /><path
     id="path3004"
     d="m40.849 1.6516s-21.324 6.2988-39.261 4.375l2.2262 22.048s24.52-0.5625 39.614-6.9475l-2.5788-19.475z"
     stroke="#405135"
     stroke-width="1.25"
     fill="none" /><path
     id="path3020"
     opacity=".60001"
     d="m1.5866 6.0254 2.2275 22.049s4.4688-0.10125 10.759-0.71875c0.11125-8.7238-0.94125-16.621-1.6925-21.064-3.7625 0.175-7.5988 0.12875-11.294-0.26625"
     fill="#fff" /><path
     id="path3040"
     fill="url(#radialGradient6800)"
     d="m30.244 14.069c-3.1062 2.8388-2.9975 5.9412-1.875 7.5612 1.145 1.6562 2.5912 1.7238 4.2525 1.4262l5.5288-0.99375c1.5662-0.2825 3.0125-1.1362 3.285-2.875 0.26125-1.6525-0.72-4.5312-4.6512-6.2975l-6.54 1.1788z" /><path
     id="path3052"
     stroke-linejoin="round"
     d="m32.622 23.057 5.5275-0.99375c1.5675-0.2825 3.0125-1.1362 3.2862-2.875 0.26125-1.6525-0.72-4.5312-4.6512-6.2975l-6.54 1.18c-3.1062 2.8375-2.9988 5.94-1.875 7.56 1.145 1.6562 2.59 1.7238 4.2525 1.4262z"
     stroke="#404604"
     stroke-linecap="round"
     stroke-width=".42875"
     fill="none" /><path
     id="path3068"
     opacity=".21520"
     stroke-linejoin="round"
     d="m32.575 22.49 5.3788-0.96375c1.3762-0.25 2.6438-1 2.8875-2.5275 0.225-1.45-0.76375-3.9575-4.2188-5.5075l-6.005 1.0825c-2.7275 2.4925-2.7638 5.2425-1.7775 6.6675 1.0075 1.4512 2.28 1.5125 3.735 1.2488z"
     stroke="#fff"
     stroke-linecap="round"
     stroke-width=".42875"
     fill="none" /><path
     id="path3088"
     fill="url(#radialGradient6808)"
     d="m32.358 6.2666c-2.495 0.45-4.1525 2.8362-3.7038 5.3275 0.0025 0 0.0025 0.005 0.0025 0.005 0.44875 2.4925 2.835 4.1488 5.3275 3.6962 2.4888-0.4475 4.1512-2.8338 3.6988-5.325 0 0-0.0025-0.0038 0.0025-0.0063-0.4-2.2162-2.3338-3.7712-4.5088-3.7712-0.27 0-0.54375 0.02375-0.81875 0.07375" /><path
     id="path3100"
     stroke-linejoin="round"
     d="m37.683 9.9706c0.45125 2.4912-1.2112 4.8762-3.6988 5.325-2.4925 0.4525-4.8775-1.2038-5.3275-3.6962 0 0 0-0.005-0.0025-0.005-0.44875-2.4912 1.2088-4.8788 3.7038-5.3288 2.49-0.4475 4.8788 1.2075 5.3275 3.6988-0.005 0.0025-0.0025 0.0062-0.0025 0.0062z"
     stroke="#404604"
     stroke-linecap="round"
     stroke-width=".42875"
     fill="none" /><path
     id="path3116"
     opacity=".12659"
     stroke-linejoin="round"
     d="m37.131 10.072c0.3925 2.1862-1.06 4.2775-3.2475 4.67-2.185 0.39625-4.275-1.055-4.6725-3.2412 0.0025-0.0038 0.0025-0.0062 0-0.0062-0.395-2.1875 1.06-4.2788 3.2425-4.6738 2.19-0.39375 4.28 1.0588 4.675 3.2438 0 0.0038 0 0.005 0.0025 0.0075z"
     stroke="#fff"
     stroke-linecap="round"
     stroke-width=".42875"
     fill="none" /><path
     id="path3148"
     opacity=".22784"
     fill="url(#linearGradient7314)"
     d="m30.275 22.919c-0.7-0.165-1.115-0.79875-1.115-0.79875 0.05625-2.2012 1.2788-4.0212 1.2788-4.0212s-0.58875 3.5588-0.16375 4.82" /><path
     id="path3180"
     opacity=".22784"
     fill="url(#linearGradient7328)"
     d="m40.046 20.699c0.5875-0.415 0.75375-1.21 0.75375-1.21-0.88125-2.0175-2.715-3.1938-2.715-3.1938s1.8825 3.075 1.9612 4.4038" /><path
     id="path3184"
     d="m8.0369 25.933-0.87375 0.0875-0.2875-2.855-0.73875 0.78375-0.09375-0.93125 0.7375-0.78375 0.87375-0.09 0.3825 3.7888z"
     fill="#405135" /><path
     id="path3188"
     d="m10.544 24.523-0.15-1.4938c-0.01375-0.12875-0.0575-0.2225-0.1275-0.28-0.07-0.0625-0.15625-0.09125-0.26-0.08-0.09875 0.0088-0.17875 0.05125-0.23625 0.1225-0.05875 0.07375-0.0825 0.175-0.07125 0.3075l0.15375 1.495c0.01375 0.125 0.055 0.21875 0.12875 0.27625 0.06875 0.0625 0.155 0.0875 0.25625 0.07625 0.10125-0.0087 0.1825-0.04875 0.2375-0.1225 0.06-0.06875 0.08125-0.1675 0.06875-0.30125m0.87-0.09125c0.03875 0.37-0.05625 0.67875-0.28125 0.91625-0.20625 0.22375-0.47875 0.35-0.8175 0.38625-0.33625 0.03375-0.62875-0.0375-0.875-0.21125-0.27-0.1925-0.42375-0.47375-0.46125-0.8475l-0.1525-1.4888c-0.03625-0.37 0.0575-0.67875 0.285-0.92 0.2075-0.22125 0.4775-0.34875 0.81625-0.38375 0.33625-0.03375 0.6275 0.0375 0.87375 0.2125 0.27125 0.19125 0.42375 0.47375 0.4625 0.84375l0.15 1.4925z"
     fill="#405135" /><path
     id="path3192"
     d="m13.499 24.226-0.15-1.4938c-0.01375-0.1325-0.055-0.22375-0.12625-0.28625-0.0675-0.0625-0.1575-0.085-0.26125-0.07625-0.0975 0.01-0.175 0.05125-0.23375 0.12375-0.06125 0.07125-0.085 0.175-0.07 0.305l0.15 1.4975c0.01375 0.12625 0.05625 0.22 0.12875 0.2775 0.0725 0.06 0.15875 0.085 0.2575 0.0725 0.1025-0.0087 0.18375-0.05125 0.24-0.12 0.05625-0.0675 0.08-0.17 0.065-0.3m0.87375-0.095c0.0375 0.37125-0.0575 0.67875-0.28375 0.92-0.2075 0.2225-0.48 0.34875-0.81625 0.38375s-0.6275-0.0375-0.87625-0.2125c-0.27-0.19125-0.4225-0.47375-0.46125-0.84625l-0.15-1.4888c-0.0375-0.37125 0.0575-0.67875 0.28125-0.92125 0.2075-0.21875 0.48-0.3475 0.81875-0.38125 0.33375-0.035 0.6275 0.03625 0.875 0.2125 0.27125 0.19 0.42375 0.47375 0.46125 0.84125l0.15125 1.4925z"
     fill="#405135" /><path
     id="path3196"
     d="m16.458 23.926-0.15125-1.495c-0.0125-0.12875-0.055-0.2225-0.12625-0.28375-0.07-0.06125-0.15625-0.08625-0.26-0.075-0.09875 0.01-0.17625 0.05125-0.2375 0.12375-0.05875 0.07125-0.0825 0.1725-0.06625 0.30375l0.15 1.4975c0.01375 0.125 0.055 0.21875 0.12875 0.27875 0.07125 0.0575 0.15875 0.0825 0.25625 0.07375 0.10375-0.0125 0.18125-0.05125 0.24-0.12375 0.0575-0.0675 0.08125-0.17 0.06625-0.3m0.8725-0.09375c0.03625 0.3725-0.0575 0.67875-0.28375 0.92125-0.2075 0.22125-0.48 0.35-0.815 0.38375-0.3375 0.0325-0.63125-0.0375-0.8775-0.215-0.26875-0.19-0.42375-0.4725-0.46-0.84375l-0.15-1.4912c-0.0375-0.37125 0.0575-0.6775 0.28125-0.92125 0.2075-0.2175 0.47875-0.3475 0.81625-0.37875 0.33625-0.03625 0.63 0.03375 0.87625 0.21125 0.27 0.19125 0.42375 0.4725 0.4625 0.84125l0.15 1.4925z"
     fill="#405135" /><path
     id="path3200"
     d="m19.416 23.628-0.15-1.4962c-0.01375-0.12875-0.055-0.2225-0.12625-0.2825-0.07-0.0625-0.1575-0.08625-0.26-0.07625-0.09875 0.0075-0.1775 0.05-0.2375 0.1225-0.05875 0.0725-0.0825 0.17375-0.0675 0.305l0.15 1.4962c0.01375 0.125 0.055 0.22125 0.12875 0.27875 0.07125 0.0575 0.15875 0.085 0.25625 0.07375 0.10375-0.01125 0.1825-0.05125 0.24125-0.1225 0.05625-0.06875 0.08-0.16875 0.065-0.29875m0.87375-0.09625c0.035 0.3725-0.06 0.68125-0.285 0.92125-0.20625 0.22125-0.47875 0.35-0.815 0.385-0.3375 0.0325-0.63-0.0375-0.8775-0.2125-0.26875-0.19375-0.42375-0.47375-0.45875-0.84625l-0.15125-1.4912c-0.0375-0.3725 0.05625-0.6775 0.28125-0.92 0.20875-0.21875 0.48-0.3475 0.81625-0.38125 0.3375-0.035 0.63 0.035 0.87625 0.21125 0.27 0.1925 0.425 0.47375 0.46125 0.84375l0.1525 1.49z"
     fill="#405135" /><path
     id="path3252"
     opacity="0.3"
     d="m39.272 4.024c-1.69 0.44-4.4062 1.105-7.7638 1.7738-5.6475 1.1275-14.171 2.47-22.704 2.47-1.765 0-3.4825-0.0575-5.1238-0.1725l1.8225 18.041c3.7288-0.175 13.662-0.79375 23.385-2.7338 4.83-0.9625 9.0238-2.1288 12.486-3.47l-2.102-15.908zm1.0525-1.5762 2.4162 18.285c-3.7012 1.5225-8.2762 2.8325-13.608 3.8962-11.012 2.1975-22.129 2.7112-24.755 2.805l-2.0911-20.705c2.145 0.2 4.3312 0.28875 6.5188 0.28875 8.2125 0 16.431-1.2438 22.46-2.445 4.375-0.8725 7.6825-1.7438 9.06-2.125"
     fill="#fff" /><path
     id="path3256"
     d="m28.67 31.27c-2.9238-1.6025-6.77-0.8175-8.5912 1.7512-0.5875 0.8275-0.89 1.74-0.935 2.65-0.27125 2.04 0.7725 4.1312 2.8888 5.29 2.9238 1.5988 6.77 0.81625 8.5912-1.7512 0.58875-0.82875 0.88875-1.7412 0.93625-2.6512 0.27-2.0412-0.775-4.13-2.89-5.2888"
     fill="#323232" /><path
     id="path3260"
     d="m28.67 31.27c-2.9238-1.6025-6.77-0.8175-8.5912 1.7512-0.5875 0.8275-0.89 1.74-0.935 2.65-0.27125 2.04 0.7725 4.1312 2.8888 5.29 2.9238 1.5988 6.77 0.81625 8.5912-1.7512 0.58875-0.82875 0.88875-1.7412 0.93625-2.6512 0.27-2.0412-0.775-4.13-2.89-5.2888z"
     stroke="#323232"
     stroke-width=".58750"
     fill="none" /><path
     id="path3280"
     fill="url(#radialGradient6835)"
     d="m19.605 33.357c-1.3388 2.79 0.14875 6.0025 3.3225 7.18 3.1725 1.1762 6.83-0.13 8.17-2.92 1.3412-2.7838-0.14625-6-3.32-7.1762-0.79125-0.29375-1.6138-0.4325-2.4225-0.4325-2.4325 0-4.7438 1.2575-5.75 3.3488" /><path
     id="path3292"
     d="m27.778 30.441c3.1738 1.1762 4.6612 4.3925 3.32 7.1762-1.34 2.79-4.9988 4.0962-8.1712 2.9188-3.1738-1.1762-4.66-4.39-3.3212-7.1788 1.34-2.7862 4.9988-4.0925 8.1725-2.9162z"
     stroke="#6f4708"
     stroke-width=".58750"
     fill="none" /><path
     id="path3312"
     fill="url(#radialGradient6840)"
     d="m26.22 34.349-1.2138 2.5288c0.32 1.7138 1.5712 2.3762 2.4975 2.3538 0.94625-0.02375 1.3425-0.51125 1.6512-1.15l1.0275-2.1375c0.29125-0.605 0.325-1.3-0.29-1.7862-0.30375-0.24125-0.82375-0.44-1.4925-0.44-0.6175 0-1.3625 0.16875-2.18 0.63125" /><path
     id="path3324"
     stroke-linejoin="round"
     d="m29.155 38.081 1.0275-2.1375c0.29125-0.605 0.325-1.2988-0.29-1.7862-0.5825-0.4625-1.9675-0.77125-3.6725 0.19125l-1.2138 2.5288c0.32 1.715 1.5712 2.3762 2.4975 2.3538 0.94625-0.02375 1.3438-0.51 1.6512-1.15z"
     stroke="#6f4708"
     stroke-linecap="round"
     stroke-width=".18875"
     fill="none" /><path
     id="path3340"
     opacity=".21520"
     stroke-linejoin="round"
     d="m28.921 37.969 1.001-2.079c0.25625-0.5325 0.285-1.14-0.255-1.5675-0.5125-0.405-1.755-0.62875-3.2512 0.2175l-1.115 2.3225c0.2825 1.5038 1.3538 2.1375 2.1712 2.1162 0.82875-0.02 1.18-0.44625 1.4488-1.01z"
     stroke="#fff"
     stroke-linecap="round"
     stroke-width=".18875"
     fill="none" /><path
     id="path3360"
     fill="url(#radialGradient6848)"
     d="m22.474 34.387c-0.4625 0.96375 0.0525 2.0762 1.15 2.4812h0.0013c1.0988 0.40875 2.3625-0.04375 2.825-1.01 0.4625-0.96125-0.05125-2.0738-1.15-2.4788 0 0 0-0.0012-0.0013-0.0012-0.27375-0.10125-0.5575-0.15-0.8375-0.15-0.84125 0-1.64 0.435-1.9875 1.1588" /><path
     id="path3372"
     stroke-linejoin="round"
     d="m25.3 33.379c1.0988 0.405 1.6125 1.5175 1.15 2.4788-0.4625 0.96625-1.7262 1.4188-2.825 1.01h-0.0012c-1.0975-0.405-1.6125-1.5175-1.15-2.48 0.4625-0.965 1.7275-1.4175 2.825-1.01 0.0012 0 0.0012 0.0013 0.0012 0.0013z"
     stroke="#6f4708"
     stroke-linecap="round"
     stroke-width=".18875"
     fill="none" /><path
     id="path3388"
     opacity=".12659"
     stroke-linejoin="round"
     d="m25.197 33.592c0.9625 0.35625 1.4138 1.3312 1.0088 2.1762-0.40625 0.84625-1.515 1.2412-2.4788 0.88625 0 0-0.0012-0.0012-0.0012 0-0.9625-0.3575-1.4138-1.3325-1.0075-2.1775 0.4075-0.84625 1.515-1.2425 2.4762-0.885h0.0025z"
     stroke="#fff"
     stroke-linecap="round"
     stroke-width=".215"
     fill="none" /><path
     id="path3420"
     opacity=".22784"
     fill="url(#linearGradient7342)"
     d="m28.5 38.862c-0.24625 0.20625-0.6 0.2075-0.6 0.2075-0.8525-0.5175-1.2575-1.3512-1.2575-1.3512s1.2512 1.005 1.8575 1.1438" /><path
     id="path3452"
     opacity=".22784"
     fill="url(#linearGradient7356)"
     d="m30.134 34.979c-0.0125-0.2975-0.28625-0.53375-0.28625-0.53375-1.0175-0.15-1.9525 0.21875-1.9525 0.21875s1.6925 0.0425 2.2388 0.315" /><path
     id="path3476"
     d="m21.809 32.889c-0.01125-0.0088-0.02125-0.015-0.02625-0.0175-0.0075-0.0037-0.01875-0.005-0.03-0.0062-0.0225-0.0013-0.04375 0-0.065 0.0087s-0.04375 0.02875-0.06625 0.05375c-0.0225 0.02625-0.0375 0.04875-0.0425 0.07-0.0038 0.02125-0.0025 0.0425 0.005 0.05875s0.02125 0.0325 0.04 0.04375c0.07125-0.08625 0.1075-0.12875 0.185-0.21125m0.31625-0.1125c-0.16375 0.1525-0.23875 0.23625-0.3775 0.40375 0.0275 0.0175 0.05875 0.02 0.09625 0.01s0.07125-0.03375 0.10375-0.07c0.03125-0.035 0.05-0.0625 0.06-0.08625 0.01-0.0225 0.015-0.0525 0.0175-0.08625 0.08875-0.01625 0.13375-0.02375 0.22125-0.03375-0.005 0.0575-0.0175 0.11-0.0375 0.1575s-0.055 0.1-0.105 0.15625c-0.07875 0.0875-0.155 0.145-0.23375 0.17375-0.1075 0.03875-0.22375 0.02875-0.35-0.0425-0.1025-0.0575-0.1625-0.13375-0.17125-0.2325-0.0088-0.0975 0.03-0.20125 0.11875-0.3025 0.09375-0.10625 0.2-0.165 0.31125-0.18 0.10625-0.015 0.195 0.0087 0.27 0.07125 0.03 0.025 0.04625 0.0375 0.07625 0.06125"
     fill="#6f4708" /><path
     id="path3480"
     d="m22.606 32.307c-0.03875-0.04375-0.07125-0.07125-0.0975-0.08-0.035-0.0125-0.075-0.0025-0.11875 0.02875s-0.06125 0.0625-0.055 0.09c0.0063 0.02875 0.02875 0.0625 0.07 0.10375 0.04125 0.0425 0.0775 0.07 0.1075 0.08 0.03 0.01125 0.06625 0.0038 0.10625-0.02625 0.04-0.02875 0.05875-0.06 0.0525-0.09125-0.005-0.025-0.02625-0.06125-0.065-0.105m0.4675 0.1175c-0.09375 0.055-0.14 0.08625-0.22875 0.14625-0.015-0.0175-0.02125-0.02875-0.03625-0.045-0.0088 0.03125-0.02375 0.06125-0.0425 0.0875-0.02 0.0275-0.04625 0.05375-0.08125 0.08125-0.0725 0.05375-0.1425 0.085-0.21625 0.09-0.045 0.0037-0.0925-0.0087-0.14125-0.035-0.03375-0.0175-0.07375-0.045-0.11875-0.085-0.01375-0.01125-0.0225-0.02125-0.03-0.0275-0.05875-0.0525-0.09875-0.09375-0.1175-0.1175-0.035-0.04875-0.0475-0.0975-0.03625-0.14625 0.015-0.07 0.065-0.13875 0.15-0.20125 0.0775-0.05875 0.15625-0.09 0.23125-0.09375-0.075-0.08375-0.11125-0.125-0.185-0.21 0.1125-0.075 0.17125-0.11125 0.29-0.18125 0.225 0.295 0.3375 0.44 0.5625 0.7375"
     fill="#6f4708" /><path
     id="path3484"
     d="m23.515 32.202c-0.105 0.04625-0.15625 0.07-0.2575 0.1225-0.15-0.2225-0.225-0.3325-0.375-0.555 0.1175-0.06125 0.1775-0.0875 0.30125-0.1425 0.1325 0.23125 0.19875 0.34375 0.33125 0.575m-0.37875-0.66c-0.12625 0.05625-0.19 0.0825-0.31 0.145-0.03625-0.05375-0.0525-0.07875-0.08875-0.1325 0.125-0.06375 0.1875-0.09625 0.31875-0.15375 0.03125 0.055 0.04875 0.08625 0.08 0.14125"
     fill="#6f4708" /><path
     id="path3488"
     d="m24.077 31.732c-0.0025-0.0075-0.0025-0.01-0.005-0.0175-0.06375 0.0175-0.09625 0.02625-0.1575 0.045-0.03 0.01-0.05125 0.02375-0.065 0.0375-0.0125 0.01375-0.0175 0.03125-0.01 0.04625 0.0063 0.015 0.02 0.02375 0.04 0.02875 0.02125 0.005 0.0475 0.0025 0.07875-0.0075 0.03375-0.0087 0.0575-0.01875 0.07-0.025 0.015-0.0075 0.02875-0.01875 0.0425-0.035s0.0175-0.0425 0.0063-0.0725m0.3825 0.16875c-0.11875 0.02375-0.17625 0.04125-0.29 0.07125-0.0075-0.02-0.01-0.03125-0.0175-0.0525-0.02375 0.03-0.05 0.05125-0.0775 0.06875-0.02625 0.0175-0.065 0.0325-0.11375 0.04875-0.0925 0.03125-0.1725 0.03875-0.24625 0.02375-0.0325-0.0075-0.065-0.0225-0.09125-0.0425-0.0275-0.01875-0.0475-0.0425-0.0625-0.07-0.02625-0.05-0.02375-0.105 0.01375-0.15625 0.04125-0.05875 0.12125-0.10625 0.23875-0.1425 0.0825-0.0275 0.125-0.0425 0.21125-0.065-0.0025-0.0062-0.0038-0.0075-0.0062-0.01375-0.01-0.0275-0.0275-0.04625-0.0575-0.05125-0.02875-0.005-0.07375-0.0025-0.13125 0.01625-0.04125 0.0125-0.07125 0.02625-0.09125 0.03875-0.02 0.01375-0.04 0.03375-0.05875 0.05875-0.1-0.02125-0.15125-0.03125-0.25375-0.04625 0.03625-0.05 0.08-0.09125 0.1325-0.125 0.05375-0.0325 0.12625-0.06875 0.22-0.09625 0.3275-0.09875 0.5275-0.045 0.57 0.1125 0.045 0.17 0.0675 0.2525 0.11125 0.4225"
     fill="#6f4708" /><path
     id="path3504"
     opacity="0.3"
     d="m25.361 30.834c-2.14 0.0013-4.0575 1.1188-4.8875 2.845-0.55 1.1425-0.55875 2.4088-0.02625 3.5612 0.5325 1.1525 1.5438 2.0538 2.845 2.5362 0.655 0.24375 1.3462 0.365 2.0512 0.365 2.14 0 4.0575-1.115 4.8875-2.8438 0.55-1.1438 0.56-2.4075 0.025-3.56-0.5325-1.1538-1.5425-2.0525-2.8438-2.5362-0.655-0.2425-1.3462-0.3675-2.0512-0.3675m0-0.54875c0.76625 0 1.545 0.13125 2.295 0.41 3.0075 1.115 4.4238 4.1738 3.1512 6.8162-0.9525 1.9862-3.1525 3.1812-5.4638 3.1812-0.76625 0-1.545-0.1325-2.295-0.41-3.01-1.115-4.4238-4.1725-3.1525-6.8188 0.95375-1.9838 3.1538-3.1775 5.465-3.1788"
     fill="#fff" /><path
     id="path3508"
     d="m30.193 26.94c-2.9125-1.595-6.745-0.81375-8.5625 1.745-0.5825 0.825-0.88375 1.7325-0.92875 2.64-0.27 2.0325 0.77 4.1162 2.8775 5.27 2.9125 1.5938 6.745 0.8125 8.56-1.745 0.585-0.825 0.88625-1.735 0.9325-2.6412 0.26875-2.0325-0.77125-4.115-2.8788-5.2688"
     fill="#323232" /><path
     id="path3512"
     d="m30.193 26.94c-2.9125-1.595-6.745-0.81375-8.5625 1.745-0.5825 0.825-0.88375 1.7325-0.92875 2.64-0.27 2.0325 0.77 4.1162 2.8775 5.27 2.9125 1.5938 6.745 0.8125 8.56-1.745 0.585-0.825 0.88625-1.735 0.9325-2.6412 0.26875-2.0325-0.77125-4.115-2.8788-5.2688z"
     stroke="#323232"
     stroke-width="0.585"
     fill="none" /><path
     id="path3532"
     fill="url(#radialGradient6875)"
     d="m21.671 28.255c-1.8138 2.5588-0.925 5.9262 1.9875 7.52 2.9112 1.5938 6.7438 0.81375 8.56-1.745 1.8138-2.56 0.925-5.9262-1.9875-7.5212-1.0225-0.56-2.1575-0.82625-3.28-0.82625-2.075 0-4.1025 0.9125-5.28 2.5725" /><path
     id="path3544"
     d="m32.219 34.031c-1.8162 2.5575-5.65 3.3388-8.56 1.745-2.9125-1.595-3.8025-4.9612-1.9875-7.52 1.815-2.56 5.6475-3.3412 8.56-1.7462s3.8012 4.9612 1.9875 7.5212z"
     stroke="#787878"
     stroke-width="0.585"
     fill="none" /><path
     id="path3564"
     fill="url(#radialGradient6880)"
     d="m22.416 32.415c-0.12125 0.82 0.35875 1.2412 1.0288 1.6075l2.2325 1.2238c0.63375 0.345 1.4038 0.485 2.0438 0.03 0.61-0.4325 1.175-1.5812 0.36375-3.205l-2.6412-1.4475c-1.97 0.01125-2.9075 0.98875-3.0275 1.7912" /><path
     id="path3576"
     stroke-linejoin="round"
     d="m23.444 34.023 2.2338 1.2238c0.6325 0.345 1.4038 0.48375 2.0438 0.03 0.61-0.4325 1.1738-1.5825 0.36375-3.2062l-2.6412-1.4475c-1.9712 0.01125-2.9088 0.98875-3.0275 1.7925-0.1225 0.82 0.35875 1.2412 1.0275 1.6075z"
     stroke="#787878"
     stroke-linecap="round"
     stroke-width=".18875"
     fill="none" /><path
     id="path3592"
     opacity=".21520"
     stroke-linejoin="round"
     d="m23.608 33.839 2.17 1.1888c0.5575 0.30375 1.2338 0.42625 1.7975 0.0275 0.535-0.38 0.97625-1.4188 0.26375-2.845l-2.425-1.3275c-1.73 0.01-2.6075 0.8375-2.7125 1.5438-0.105 0.72 0.3175 1.09 0.90625 1.4125z"
     stroke="#fff"
     stroke-linecap="round"
     stroke-width=".18875"
     fill="none" /><path
     id="path3612"
     fill="url(#radialGradient6888)"
     d="m25.669 29.433v0.0012c-0.6275 0.885-0.32 2.0488 0.68875 2.5988 1.005 0.55125 2.3312 0.28125 2.9588-0.605v-0.0012c0.6275-0.885 0.31875-2.0488-0.68875-2.6-0.3525-0.1925-0.745-0.28375-1.1325-0.28375-0.7175 0-1.4188 0.315-1.8262 0.89" /><path
     id="path3624"
     stroke-linejoin="round"
     d="m29.316 31.428c-0.6275 0.885-1.9538 1.1562-2.9588 0.605-1.0088-0.55-1.3162-1.715-0.68875-2.6v-0.0012c0.6275-0.885 1.9538-1.155 2.9588-0.605 1.0088 0.55125 1.3162 1.715 0.68875 2.6v0.0012z"
     stroke="#787878"
     stroke-linecap="round"
     stroke-width=".18875"
     fill="none" /><path
     id="path3640"
     opacity=".12659"
     stroke-linejoin="round"
     d="m29.091 31.306c-0.54875 0.77625-1.7112 1.0138-2.595 0.53125-0.88375-0.485-1.155-1.505-0.60375-2.2812v-0.0013c0.5525-0.77625 1.7125-1.0138 2.5962-0.53 0.88375 0.48375 1.1538 1.5038 0.605 2.28 0 0-0.0025 0-0.0025 0.0013z"
     stroke="#fff"
     stroke-linecap="round"
     stroke-width=".215"
     fill="none" /><path
     id="path3672"
     opacity=".22784"
     fill="url(#linearGradient7370)"
     d="m22.673 33.337c-0.19-0.245-0.13625-0.5525-0.13625-0.5525 0.71-0.65625 1.7088-0.875 1.7088-0.875s-1.3238 0.92375-1.5725 1.4275" /><path
     id="path3704"
     opacity=".22784"
     fill="url(#linearGradient7384)"
     d="m26.765 35.355c0.33375 0.035 0.64125-0.1625 0.64125-0.1625 0.33-0.85875 0.06125-1.7238 0.06125-1.7238s-0.3125 1.4575-0.7025 1.8862" /><path
     id="path3732"
     d="m30.936 29.266c0.05625-0.02625 0.09125-0.05 0.10625-0.0725 0.01875-0.02625 0.01125-0.06375-0.0175-0.1075-0.0275-0.0425-0.05375-0.06125-0.08625-0.06-0.0325 0.0012-0.08125 0.01375-0.13375 0.04375-0.05375 0.02875-0.08625 0.05625-0.10375 0.08-0.01625 0.025-0.0075 0.0575 0.0175 0.09625 0.02625 0.04 0.0575 0.05875 0.0925 0.05875 0.02875 0 0.07-0.0125 0.125-0.03875m-0.2075 0.385c-0.04625-0.09-0.07125-0.135-0.12375-0.22 0.0225-0.01125 0.035-0.01125 0.05625-0.0225-0.035-0.0125-0.0675-0.03125-0.095-0.0525-0.02625-0.02-0.04875-0.04875-0.0725-0.08375-0.05125-0.07125-0.075-0.13625-0.06875-0.20125 0.0038-0.04 0.02-0.07875 0.05625-0.11625 0.02375-0.0275 0.065-0.055 0.1175-0.0875 0.015-0.01 0.03-0.0175 0.0375-0.0225 0.0675-0.0425 0.115-0.07125 0.145-0.0825 0.06125-0.02375 0.1175-0.03 0.17125-0.01125 0.075 0.02375 0.14625 0.0825 0.205 0.16625 0.05375 0.07625 0.07125 0.1475 0.06375 0.2125 0.10625-0.05125 0.15875-0.0775 0.265-0.12875 0.0675 0.10875 0.1 0.165 0.15875 0.27875-0.36625 0.1475-0.55 0.22125-0.91625 0.37125"
     fill="#787878" /><path
     id="path3736"
     d="m30.912 30.071c-0.035-0.0975-0.05375-0.145-0.09625-0.24 0.2725-0.09625 0.4075-0.14375 0.68-0.23875 0.05 0.11125 0.0725 0.165 0.115 0.28125-0.28 0.0775-0.41875 0.11875-0.69875 0.1975m0.8025-0.225c-0.04375-0.1175-0.06625-0.17625-0.1175-0.29 0.06625-0.02375 0.0975-0.035 0.16375-0.05875 0.0525 0.1175 0.07875 0.18 0.1225 0.30125-0.06625 0.01875-0.1025 0.02875-0.16875 0.0475"
     fill="#787878" /><path
     id="path3740"
     d="m31.352 30.63c0.0075-0.0012 0.0087-0.0038 0.01625-0.005-0.01-0.0575-0.01625-0.08375-0.0275-0.14125-0.0063-0.02875-0.015-0.05-0.02875-0.06375-0.015-0.015-0.0275-0.02-0.045-0.01625-0.01875 0.0037-0.035 0.015-0.045 0.03375-0.0075 0.01625-0.005 0.04 0 0.0675 0.0063 0.03125 0.0125 0.05375 0.0175 0.06625s0.01375 0.025 0.03 0.04c0.015 0.01625 0.045 0.02375 0.0825 0.01875m-0.2525 0.3025c-0.0088-0.10625-0.01625-0.15875-0.03375-0.2625 0.025-0.0037 0.0375-0.0037 0.06125-0.0075-0.02875-0.02375-0.0475-0.05-0.0625-0.07625-0.01625-0.02625-0.03-0.0625-0.04-0.10625-0.0175-0.085-0.01125-0.1575 0.0175-0.2175 0.01375-0.0275 0.03-0.05125 0.05625-0.0725 0.02375-0.01875 0.05375-0.03125 0.08875-0.04 0.06-0.015 0.11875-0.0063 0.17 0.03375 0.06 0.045 0.10375 0.1225 0.12625 0.22875 0.0175 0.0775 0.02625 0.11625 0.03875 0.19375 0.0087-0.0012 0.0125-0.0012 0.02125-0.0025 0.03375-0.0025 0.05625-0.01875 0.0675-0.04375 0.01125-0.0225 0.0075-0.06375-0.0037-0.1175-0.0075-0.0375-0.01625-0.0625-0.0275-0.0825-0.01125-0.01875-0.03-0.04-0.055-0.0625 0.03875-0.0825 0.05625-0.12375 0.09-0.21 0.05 0.04 0.09125 0.08625 0.12125 0.13625 0.02875 0.05125 0.05125 0.12125 0.0675 0.2075 0.05875 0.2975-0.0275 0.46125-0.2125 0.4725-0.19625 0.0125-0.295 0.01625-0.49125 0.02875"
     fill="#787878" /><path
     id="path3756"
     opacity="0.3"
     d="m26.953 26.508c-1.8412 0-3.5175 0.815-4.4875 2.1825-1.5375 2.1688-0.78125 5.0338 1.69 6.3862 0.835 0.46 1.7962 0.70125 2.78 0.70125 1.8412 0 3.5188-0.815 4.4875-2.1825 0.745-1.0488 0.97875-2.2912 0.66-3.5-0.3175-1.2075-1.1525-2.2325-2.3462-2.8862-0.8375-0.46-1.8-0.70125-2.7838-0.70125m0-0.5475c1.0675 0 2.1438 0.2525 3.1125 0.7825 2.7612 1.5125 3.6088 4.7162 1.8875 7.1425-1.1162 1.575-3.0462 2.4412-5.0175 2.4412-1.0638 0-2.1438-0.25375-3.1125-0.7825-2.7612-1.5138-3.6088-4.7175-1.8875-7.1425 1.1188-1.5762 3.0475-2.4412 5.0175-2.4412"
     fill="#fff" /><path
     id="path3760"
     d="m36.86 30.273c-2.9125-1.595-6.745-0.81375-8.5625 1.745-0.5825 0.825-0.88375 1.7325-0.93 2.64-0.26875 2.0325 0.77125 4.1162 2.8788 5.27 2.9125 1.5938 6.745 0.8125 8.56-1.745 0.585-0.825 0.88625-1.735 0.9325-2.6412 0.26875-2.0325-0.77125-4.115-2.8788-5.2688"
     fill="#323232" /><path
     id="path3764"
     d="m36.86 30.273c-2.9125-1.595-6.745-0.81375-8.5625 1.745-0.5825 0.825-0.88375 1.7325-0.93 2.64-0.26875 2.0325 0.77125 4.1162 2.8788 5.27 2.9125 1.5938 6.745 0.8125 8.56-1.745 0.585-0.825 0.88625-1.735 0.9325-2.6412 0.26875-2.0325-0.77125-4.115-2.8788-5.2688z"
     stroke="#323232"
     stroke-width="0.585"
     fill="none" /><path
     id="path3784"
     fill="url(#radialGradient6915)"
     d="m28.339 31.589c-1.8162 2.5588-0.925 5.925 1.9875 7.52 2.91 1.5938 6.7438 0.8125 8.56-1.7438 1.8138-2.5612 0.925-5.9275-1.9875-7.5212-1.0238-0.56125-2.16-0.8275-3.2825-0.8275-2.0738 0-4.1 0.9125-5.2775 2.5725" /><path
     id="path3796"
     d="m38.886 37.364c-1.8162 2.5575-5.65 3.3388-8.56 1.745-2.9125-1.595-3.8038-4.9612-1.9875-7.52 1.815-2.56 5.6475-3.3412 8.56-1.7462s3.8012 4.9612 1.9875 7.5212z"
     stroke="#787878"
     stroke-width="0.585"
     fill="none" /><path
     id="path3816"
     fill="url(#radialGradient6920)"
     d="m29.084 35.749c-0.1225 0.82 0.35875 1.2425 1.0275 1.6075l2.2338 1.2238c0.6325 0.34625 1.405 0.48375 2.045 0.03125 0.61-0.4325 1.1725-1.5838 0.3625-3.2062l-2.6412-1.4488c-1.97 0.01125-2.9075 0.99-3.0275 1.7925" /><path
     id="path3828"
     stroke-linejoin="round"
     d="m30.112 37.357 2.2338 1.2238c0.6325 0.345 1.4038 0.48375 2.0438 0.03 0.61-0.4325 1.1738-1.5825 0.36375-3.2062l-2.6412-1.4475c-1.9712 0.01125-2.9088 0.98875-3.0275 1.7925-0.1225 0.82 0.35875 1.2412 1.0275 1.6075z"
     stroke="#787878"
     stroke-linecap="round"
     stroke-width=".18875"
     fill="none" /><path
     id="path3844"
     opacity=".21520"
     stroke-linejoin="round"
     d="m30.276 37.173 2.17 1.1888c0.5575 0.30375 1.2338 0.42625 1.7975 0.0275 0.535-0.38 0.97625-1.4188 0.26375-2.845l-2.425-1.3275c-1.73 0.01-2.6075 0.8375-2.7125 1.5438-0.105 0.72 0.3175 1.09 0.90625 1.4125z"
     stroke="#fff"
     stroke-linecap="round"
     stroke-width=".18875"
     fill="none" /><path
     id="path3864"
     fill="url(#radialGradient6928)"
     d="m32.335 32.765v0.0012c-0.62625 0.88625-0.31875 2.05 0.68875 2.6012 1.0075 0.55 2.3325 0.27875 2.96-0.60625v-0.0012c0.62625-0.88375 0.32-2.0475-0.68875-2.6-0.3525-0.1925-0.74375-0.28375-1.1312-0.28375-0.71875 0-1.4212 0.315-1.8288 0.88875" /><path
     id="path3876"
     stroke-linejoin="round"
     d="m35.984 34.762c-0.6275 0.885-1.9538 1.1562-2.9588 0.605-1.0088-0.55-1.3162-1.715-0.68875-2.6v-0.0012c0.6275-0.885 1.9538-1.155 2.9588-0.605 1.0088 0.55125 1.3162 1.715 0.68875 2.6v0.0013z"
     stroke="#787878"
     stroke-linecap="round"
     stroke-width=".18875"
     fill="none" /><path
     id="path3892"
     opacity=".12659"
     stroke-linejoin="round"
     d="m35.759 34.64c-0.54875 0.77625-1.7112 1.0138-2.595 0.53125-0.88375-0.485-1.155-1.505-0.60375-2.2812v-0.0013c0.5525-0.77625 1.7125-1.0138 2.5962-0.53 0.88375 0.48375 1.1538 1.5038 0.605 2.28 0 0-0.0025 0-0.0025 0.0013z"
     stroke="#fff"
     stroke-linecap="round"
     stroke-width=".215"
     fill="none" /><path
     id="path3924"
     opacity=".22784"
     fill="url(#linearGradient7398)"
     d="m29.34 36.67c-0.19-0.245-0.13625-0.5525-0.13625-0.5525 0.71-0.65625 1.7088-0.875 1.7088-0.875s-1.3238 0.92375-1.5725 1.4275" /><path
     id="path3956"
     opacity=".22784"
     fill="url(#linearGradient7412)"
     d="m33.433 38.689c0.33375 0.035 0.64125-0.1625 0.64125-0.1625 0.33-0.85875 0.06125-1.7238 0.06125-1.7238s-0.3125 1.4575-0.7025 1.8862" /><path
     id="path3960"
     d="m33.6 29.946c-0.17125 0.3525-0.235 0.535-0.3425 0.8975-0.10125 0.0075-0.15375 0.01375-0.25625 0.025-0.10625-0.16375-0.16875-0.24375-0.2975-0.4-0.055 0.18625-0.075 0.28-0.11125 0.4675-0.10125 0.0225-0.15125 0.03375-0.25125 0.06125-0.255-0.30125-0.40125-0.44625-0.72375-0.7125 0.16-0.05625 0.24-0.08375 0.4-0.1275 0.14625 0.15625 0.21375 0.23625 0.3425 0.4 0.035-0.2025 0.05875-0.3025 0.115-0.505 0.10875-0.02125 0.1625-0.03125 0.27125-0.0475 0.13625 0.17 0.19875 0.26 0.31125 0.43625 0.05-0.19375 0.08-0.29125 0.14625-0.4825 0.16-0.01125 0.2375-0.0125 0.39625-0.0125"
     fill="#787878" /><path
     id="path3964"
     d="m33.986 30.852c-0.1125-0.01-0.17-0.01375-0.28375-0.0175 0.01-0.2575 0.01375-0.38625 0.0225-0.64375 0.13375 0.0037 0.2 0.0075 0.33375 0.01875-0.03 0.255-0.0425 0.38625-0.0725 0.6425m0.0825-0.73375c-0.135-0.0125-0.20375-0.0175-0.34-0.02125 0.0025-0.06125 0.0025-0.095 0.005-0.15625 0.14125 0.0025 0.21375 0.01 0.35375 0.0225-0.0075 0.0625-0.01125 0.0925-0.01875 0.155"
     fill="#787878" /><path
     id="path3968"
     d="m35.044 31.067c-0.13-0.0425-0.19125-0.06-0.32625-0.0925-0.0425-0.11375-0.0675-0.17-0.12125-0.2825-0.0275 0.0125-0.045 0.02-0.07125 0.0325-0.02 0.0775-0.0275 0.1175-0.0475 0.1975-0.11-0.0225-0.165-0.0325-0.27625-0.04625 0.0625-0.35125 0.08875-0.53 0.14875-0.87875 0.13875 0.0175 0.20625 0.0275 0.3425 0.05375-0.04375 0.17625-0.06625 0.2675-0.11 0.445 0.13125-0.07125 0.2-0.105 0.3425-0.1675 0.1525 0.0375 0.22875 0.06 0.3775 0.10875-0.19375 0.055-0.2875 0.08875-0.46625 0.16 0.1 0.1875 0.14 0.28125 0.2075 0.47"
     fill="#787878" /><path
     id="path3972"
     d="m35.398 31.201c-0.1-0.0425-0.14875-0.0625-0.2525-0.09875 0.11-0.24 0.16375-0.36125 0.27375-0.6 0.12 0.04375 0.18 0.07 0.2975 0.12-0.1275 0.23125-0.19 0.34625-0.31875 0.57875m0.36625-0.665c-0.12-0.05125-0.18375-0.07625-0.30625-0.12 0.02625-0.0575 0.03875-0.08625 0.06625-0.14375 0.1275 0.045 0.19125 0.0725 0.31625 0.125-0.03125 0.05625-0.04625 0.0825-0.07625 0.13875"
     fill="#787878" /><path
     id="path3976"
     d="m36.24 31.252c0.03625-0.045 0.055-0.08 0.0575-0.105 0.0038-0.03125-0.015-0.06625-0.06125-0.0925-0.045-0.0275-0.0825-0.03-0.1125-0.01625-0.02875 0.01375-0.05875 0.04125-0.0925 0.08875-0.0325 0.04625-0.0525 0.085-0.055 0.1125-0.0025 0.02875 0.0175 0.0525 0.05875 0.0775 0.0425 0.025 0.07875 0.0325 0.11125 0.0175 0.025-0.01 0.0575-0.0375 0.09375-0.0825m0.24 0.16c-0.01 0.0125-0.01875 0.0225-0.025 0.02875-0.0425 0.04625-0.08125 0.0775-0.11 0.0975-0.0425 0.0275-0.08625 0.045-0.13375 0.04625-0.07375 0.0012-0.145-0.02375-0.22-0.07-0.06875-0.0425-0.11375-0.0925-0.13625-0.1475-0.06375 0.08875-0.09875 0.13625-0.1625 0.225-0.08875-0.04875-0.13375-0.07375-0.225-0.1175 0.19375-0.31125 0.29-0.4675 0.48375-0.77875 0.11125 0.05375 0.165 0.08375 0.2725 0.14375-0.0125 0.01875-0.02 0.0275-0.03375 0.04625 0.04-0.0025 0.07875 0.0012 0.11875 0.01125 0.03875 0.01 0.085 0.02875 0.13 0.0575 0.09 0.05625 0.1425 0.12 0.165 0.1875 0.01875 0.05625 0.005 0.115-0.0425 0.17875-0.015 0.01875-0.04125 0.04875-0.08125 0.09125"
     fill="#787878" /><path
     id="path3980"
     d="m37.075 31.822c0.01125-0.0087 0.01875-0.0125 0.02375-0.01875 0.0025-0.005 0.0087-0.01375 0.0125-0.02625 0.0063-0.01875 0.005-0.03875-0.0012-0.05875-0.0063-0.02-0.025-0.04375-0.05125-0.06875-0.025-0.0225-0.04625-0.03625-0.06875-0.04375-0.02375-0.0087-0.04625-0.01-0.06625-0.0062-0.02125 0.005-0.04 0.01375-0.0575 0.02875 0.085 0.075 0.12875 0.11375 0.20875 0.19375m0.07875 0.2875c-0.145-0.16375-0.225-0.24-0.3925-0.38625-0.025 0.02-0.0325 0.04875-0.0275 0.08125 0.0037 0.03375 0.02375 0.0625 0.05875 0.09625 0.035 0.0325 0.06375 0.05375 0.08875 0.06625 0.025 0.01125 0.05875 0.02375 0.09625 0.03125 0.0037 0.07875 0.0012 0.1175 0 0.19625-0.065-0.01375-0.12375-0.03625-0.1725-0.06125-0.05-0.025-0.10125-0.06125-0.1575-0.11375-0.085-0.08-0.13375-0.155-0.155-0.2275-0.02625-0.09875 0.0062-0.1975 0.10375-0.295 0.08125-0.08 0.1725-0.1175 0.28375-0.11125 0.11125 0.0087 0.22125 0.06 0.32125 0.1525 0.10375 0.0975 0.155 0.19625 0.15625 0.295 0 0.09375-0.04 0.1675-0.1225 0.22375l-0.08125 0.0525z"
     fill="#787878" /><path
     id="path3984"
     d="m37.603 32.6c0.05625-0.02625 0.09125-0.04875 0.10625-0.07125 0.01875-0.02625 0.01625-0.065-0.0125-0.10875-0.0275-0.0425-0.05875-0.06125-0.09125-0.06-0.0325 0.0012-0.07875 0.0125-0.1325 0.0425-0.0525 0.02875-0.08625 0.06-0.10375 0.08375-0.01625 0.025-0.01 0.055 0.015 0.09375 0.02625 0.04 0.05875 0.06 0.09375 0.06 0.02875 0 0.07-0.01375 0.125-0.04m-0.2075 0.3875c-0.04625-0.09-0.07-0.13375-0.1225-0.21875 0.0225-0.01125 0.03375-0.01875 0.055-0.03-0.035-0.0125-0.065-0.0275-0.0925-0.04875-0.02625-0.02-0.05375-0.04875-0.0775-0.08375-0.05-0.07125-0.0725-0.1375-0.06625-0.2025 0.0038-0.03875 0.0225-0.075 0.05875-0.1125 0.02375-0.0275 0.0625-0.06 0.115-0.0925 0.015-0.01 0.02875-0.01875 0.03625-0.02375 0.0675-0.0425 0.11625-0.0675 0.14625-0.07875 0.06125-0.02375 0.11875-0.03 0.1725-0.01125 0.075 0.02375 0.145 0.08 0.20375 0.16375 0.05375 0.07625 0.07 0.1475 0.0625 0.2125 0.10625-0.05125 0.16-0.0775 0.26625-0.12875 0.06875 0.10875 0.1 0.16625 0.15875 0.28-0.36625 0.1475-0.55 0.225-0.91625 0.375"
     fill="#787878" /><path
     id="path3988"
     d="m37.579 33.403c-0.035-0.0975-0.05375-0.14625-0.09625-0.24125 0.2725-0.09625 0.40625-0.14375 0.67875-0.23875 0.05 0.11125 0.0725 0.1675 0.115 0.28375-0.28 0.0775-0.4175 0.1175-0.6975 0.19625m0.8025-0.22375c-0.04375-0.1175-0.06625-0.17375-0.1175-0.2875 0.06625-0.02375 0.0975-0.03625 0.16375-0.05875 0.0525 0.1175 0.07875 0.175 0.1225 0.29625-0.06625 0.01875-0.1025 0.0325-0.16875 0.05"
     fill="#787878" /><path
     id="path3992"
     d="m38.02 33.964 0.015-0.0025c-0.01-0.0575-0.0125-0.08875-0.02375-0.14625-0.0063-0.02875-0.0175-0.04375-0.03-0.0575-0.015-0.015-0.03-0.02375-0.0475-0.02-0.01875 0.0037-0.03375 0.01625-0.04375 0.035-0.0075 0.01625-0.005 0.0375 0 0.065 0.0063 0.03125 0.0125 0.0525 0.0175 0.065s0.01375 0.0275 0.03 0.0425c0.015 0.01625 0.045 0.02375 0.0825 0.01875m-0.2525 0.305c-0.0087-0.10625-0.01625-0.16125-0.03375-0.265 0.025-0.0037 0.0375-0.0037 0.06125-0.0075-0.02875-0.02375-0.04875-0.0525-0.06375-0.07875-0.01625-0.02625-0.02875-0.06-0.03875-0.10375-0.0175-0.085-0.01375-0.1575 0.015-0.2175 0.01375-0.0275 0.0325-0.05 0.05875-0.07125 0.02375-0.01875 0.05375-0.0325 0.08875-0.04125 0.06-0.015 0.11875-0.005 0.17 0.035 0.06 0.045 0.105 0.12125 0.1275 0.2275 0.0175 0.0775 0.02375 0.11625 0.03625 0.19375 0.0087-0.0013 0.01375-0.0013 0.0225-0.0025 0.03375-0.0025 0.05375-0.02 0.065-0.045 0.01125-0.0225 0.01125-0.06 0-0.11375-0.0075-0.0375-0.0175-0.0625-0.02875-0.0825-0.01125-0.01875-0.02875-0.04-0.05375-0.0625 0.03875-0.0825 0.055-0.1275 0.08875-0.21375 0.05 0.04 0.09 0.08625 0.12 0.13625 0.02875 0.05125 0.0525 0.12125 0.06875 0.20625 0.05875 0.2975-0.0275 0.4625-0.2125 0.47375-0.19625 0.0125-0.295 0.02-0.49125 0.0325"
     fill="#787878" /><path
     id="path4008"
     opacity="0.3"
     d="m33.62 29.841c-1.8412 0-3.5175 0.815-4.4875 2.1825-1.5375 2.1688-0.78125 5.0338 1.69 6.3862 0.835 0.46 1.7962 0.70125 2.78 0.70125 1.8412 0 3.5188-0.815 4.4875-2.1825 0.745-1.0488 0.97875-2.2912 0.66-3.5-0.3175-1.2075-1.1525-2.2325-2.3462-2.8862-0.8375-0.46-1.8-0.70125-2.7838-0.70125m0-0.5475c1.0675 0 2.1438 0.2525 3.1125 0.7825 2.7612 1.5125 3.6088 4.7162 1.8875 7.1425-1.1162 1.575-3.0462 2.4412-5.0175 2.4412-1.0638 0-2.1438-0.25375-3.1125-0.7825-2.7612-1.5138-3.6088-4.7175-1.8875-7.1425 1.1188-1.5762 3.0475-2.4412 5.0175-2.4412"
     fill="#fff" /><path
     id="path4012"
     d="m40.205 25.522c-2.925-1.6-6.7725-0.81625-8.5938 1.7512-0.58625 0.82875-0.88875 1.7412-0.935 2.65-0.27125 2.0412 0.77375 4.1325 2.89 5.2912 2.9225 1.5988 6.77 0.815 8.5925-1.7512 0.5875-0.83 0.8875-1.7412 0.935-2.6525 0.27-2.04-0.775-4.13-2.8888-5.2888"
     fill="#323232" /><path
     id="path4016"
     d="m40.205 25.522c-2.925-1.6-6.7725-0.81625-8.5938 1.7512-0.58625 0.82875-0.88875 1.7412-0.935 2.65-0.27125 2.0412 0.77375 4.1325 2.89 5.2912 2.9225 1.5988 6.77 0.815 8.5925-1.7512 0.5875-0.83 0.8875-1.7412 0.935-2.6525 0.27-2.04-0.775-4.13-2.8888-5.2888z"
     stroke="#323232"
     stroke-width=".58750"
     fill="none" /><path
     id="path4036"
     fill="url(#radialGradient6955)"
     d="m30.646 29.742c0 3.025 2.7925 5.48 6.2375 5.48s6.2388-2.455 6.2388-5.48c0-3.0262-2.7938-5.48-6.2388-5.48s-6.2375 2.4538-6.2375 5.48" /><path
     id="path4048"
     d="m43.122 29.741c0 3.0262-2.7925 5.4812-6.2375 5.4812s-6.2375-2.455-6.2375-5.4812 2.7925-5.48 6.2375-5.48 6.2375 2.4538 6.2375 5.48z"
     stroke="#6f4708"
     stroke-width=".58750"
     fill="none" /><path
     id="path4068"
     fill="url(#radialGradient6960)"
     d="m35.293 30c-1.6725 0.9275-1.88 2.1988-1.4962 2.9375 0.39375 0.7575 1.0562 0.89 1.8475 0.89h2.6412c0.7475 0 1.49-0.24 1.7612-0.9275 0.25875-0.6525 0.04375-1.8938-1.6288-2.9h-3.125z" /><path
     id="path4080"
     stroke-linejoin="round"
     d="m35.644 33.828h2.6412c0.7475 0 1.49-0.24 1.76-0.9275 0.26-0.6525 0.045-1.895-1.6275-2.9012h-3.125c-1.6725 0.92875-1.88 2.1988-1.4975 2.9388 0.39375 0.7575 1.0575 0.89 1.8488 0.89z"
     stroke="#6f4708"
     stroke-linecap="round"
     stroke-width=".18875"
     fill="none" /><path
     id="path4096"
     opacity=".21520"
     stroke-linejoin="round"
     d="m35.671 33.596h2.5688c0.65875 0 1.3088-0.2125 1.545-0.815 0.2275-0.57375-0.0225-1.6638-1.4912-2.5475h-2.8688c-1.47 0.815-1.7138 1.93-1.3775 2.5812 0.345 0.6625 0.9275 0.78125 1.6238 0.78125z"
     stroke="#fff"
     stroke-linecap="round"
     stroke-width=".18875"
     fill="none" /><path
     id="path4116"
     fill="url(#radialGradient6968)"
     d="m34.765 28.879v0.0025c0 1.0462 0.96625 1.8938 2.1588 1.8938 1.1888 0 2.155-0.85 2.1525-1.8962v-0.0025c0-1.0462-0.96625-1.8938-2.155-1.8938-1.1912 0.0013-2.1562 0.85125-2.1562 1.8962" /><path
     id="path4128"
     stroke-linejoin="round"
     d="m39.077 28.879c0.0025 1.0462-0.96375 1.8962-2.1538 1.8962-1.1912 0-2.1575-0.8475-2.1575-1.895v-0.0012c0-1.0462 0.96375-1.895 2.155-1.8962 1.19 0 2.1562 0.8475 2.1562 1.8938v0.0025z"
     stroke="#6f4708"
     stroke-linecap="round"
     stroke-width=".18875"
     fill="none" /><path
     id="path4144"
     opacity=".12659"
     stroke-linejoin="round"
     d="m38.813 28.879c0 0.9175-0.8475 1.6612-1.8925 1.6625-1.0425 0-1.8888-0.74375-1.8912-1.6612v-0.0012c0-0.9175 0.84625-1.6625 1.8912-1.6625s1.8925 0.7425 1.8925 1.66v0.0025z"
     stroke="#fff"
     stroke-linecap="round"
     stroke-width=".215"
     fill="none" /><path
     id="path4176"
     opacity=".22784"
     fill="url(#linearGradient7424)"
     d="m34.573 33.603c-0.31-0.12-0.4525-0.4075-0.4525-0.4075 0.21-0.89 0.92875-1.5412 0.92875-1.5412s-0.56875 1.4025-0.47625 1.9488" /><path
     id="path4208"
     opacity=".22784"
     fill="url(#linearGradient7436)"
     d="m39.276 33.414c0.30875-0.12625 0.45-0.4375 0.45-0.4375-0.2375-0.88375-0.98875-1.4975-0.98875-1.4975s0.615 1.3888 0.53875 1.935" /><path
     id="path4260"
     opacity="0.3"
     d="m36.884 25.124c-2.9425 0-5.3362 2.0712-5.3362 4.6162 0 2.5462 2.3938 4.6188 5.3362 4.6188 2.9425 0 5.3388-2.0725 5.3388-4.6188 0-2.545-2.3962-4.6162-5.3388-4.6162m0-0.5875c3.2662 0 5.925 2.3338 5.925 5.2038s-2.6588 5.205-5.925 5.205-5.9225-2.335-5.9225-5.205 2.6562-5.2038 5.9225-5.2038"
     fill="#fff" /></svg>